<?xml version="1.0" encoding="UTF-8" standalone="no"?>
<svg xmlns:svg="http://www.w3.org/2000/svg" xmlns="http://www.w3.org/2000/svg" version="1.1" width="64" height="64"><g transform="matrix(1.25,0,0,-1.25,0,64)" id="g10"><g transform="scale(0.113224,0.113224)" id="g12"><path d="m 113.1958,234.60003 0,0 c -13.631304,-10.8513 -20.496404,-28.6507 -20.717804,-45.7648 0.3619,-7.5301 2.2345,-17.7783 10.832304,-19.9313 7.8724,-1.4093 14.6574,4.8303 18.8446,10.8099 12.0209,17.4367 12.9663,39.3417 17.275,59.4164 -8.919,2.6175 -18.9057,1.4901 -26.2341,-4.5302 m -15.945904,22.6719 c 24.583704,13.2481 54.301404,11.9183 80.435104,4.2687 -6.0196,-39.0613 -16.691,-77.7782 -15.8658,-117.5641 -10.7507,-0.02 -21.5233,-0.02 -32.2741,0 0.2003,7.975 1.0459,15.8868 1.8114,23.819 -5.2148,-8.9802 -11.8993,-17.6574 -21.503,-22.2073 -13.006404,-6.6852 -30.683504,-5.8586 -41.334404,4.812 -9.2213,8.7173 -12.4637,21.9662 -11.9401,34.269 -0.3423,29.0112 14.758,58.6087 40.6709,72.6027 l 0,0 m 95.233804,-9.061 c 7.611,10.6509 20.3151,16.5707 33.0199,18.4432 14.0741,1.63 28.832,0.8653 41.8785,-5.1543 -2.8186,-8.5571 -5.6379,-17.1345 -8.5971,-25.6515 -10.2686,3.866 -22.2684,7.7319 -32.8786,3.0408 -6.1208,-2.6176 -6.9671,-11.4565 -1.5106,-15.2416 9.182,-7.1477 21.0609,-10.6095 28.7513,-19.7506 10.4084,-10.9125 9.463,-28.43 2.2956,-40.794 -6.9467,-11.9182 -20.4563,-18.3005 -33.6434,-20.3734 -17.0543,-2.7195 -35.416,-0.7443 -50.5571,7.973 2.8791,8.5352 5.6984,17.1141 8.5768,25.6493 11.5773,-5.4151 24.8255,-10.7311 37.7117,-7.3277 7.3283,2.1544 9.7653,12.3028 3.7443,17.2948 -9.1201,7.833 -21.8249,11.1345 -29.1737,21.1817 -9.423,11.5774 -7.7719,28.9318 0.3824,40.7103 l 0,0 m 105.2206,74.9187 c 11.5366,-0.04 23.0739,0.1406 34.6295,-0.1209 -7.1471,-36.0796 -14.1535,-72.1599 -21.2211,-108.2606 13.1483,17.3559 27.5633,33.7053 41.3759,50.5361 14.396,-0.04 28.7927,0 43.1872,-0.02 -16.7717,-17.2139 -34.3476,-33.6033 -51.2002,-50.7378 11.4965,-23.3937 22.6093,-46.9927 33.7642,-70.5495 -12.9466,-0.04 -25.8721,0.061 -38.7977,-0.059 -7.329,16.9321 -14.4374,33.9667 -21.6442,50.9381 -4.268,-4.1267 -8.4762,-8.3342 -12.624,-12.5832 -2.3758,-12.7646 -4.6911,-25.5509 -7.1077,-38.3359 -11.4754,0.062 -22.9523,0.02 -34.4088,0.04 11.214,59.7587 22.7317,119.4352 34.0469,179.1531 l 0,0" id="path24" style="fill:#fff;fill-rule:nonzero;stroke:none" /></g></g></svg>
