<svg xmlns="http://www.w3.org/2000/svg" version="1.1" width="64" height="64" viewBox="0,0,64,66" color="#213553"><g transform="matrix(1.25,0,0,-1.25,0,64)"><g transform="scale(0.113224,0.113224)" id="g12"><path d="m113.2 234.6 0 0c-13.63-10.85-20.5-28.65-20.72-45.76 0.36-7.53 2.23-17.78 10.83-19.93 7.87-1.41 14.66 4.83 18.84 10.81 12.02 17.44 12.97 39.34 17.27 59.42-8.92 2.62-18.91 1.49-26.23-4.53m-15.95 22.67c24.58 13.25 54.3 11.92 80.44 4.27-6.02-39.06-16.69-77.78-15.87-117.56-10.75-0.02-21.52-0.02-32.27 0 0.2 7.98 1.05 15.89 1.81 23.82-5.21-8.98-11.9-17.66-21.5-22.21-13.01-6.69-30.68-5.86-41.33 4.81-9.22 8.72-12.46 21.97-11.94 34.27-0.34 29.01 14.76 58.61 40.67 72.6l0 0m95.23-9.06c7.61 10.65 20.32 16.57 33.02 18.44 14.07 1.63 28.83 0.87 41.88-5.15-2.82-8.56-5.64-17.13-8.6-25.65-10.27 3.87-22.27 7.73-32.88 3.04-6.12-2.62-6.97-11.46-1.51-15.24 9.18-7.15 21.06-10.61 28.75-19.75 10.41-10.91 9.46-28.43 2.3-40.79-6.95-11.92-20.46-18.3-33.64-20.37-17.05-2.72-35.42-0.74-50.56 7.97 2.88 8.54 5.7 17.11 8.58 25.65 11.58-5.42 24.83-10.73 37.71-7.33 7.33 2.15 9.77 12.3 3.74 17.29-9.12 7.83-21.82 11.13-29.17 21.18-9.42 11.58-7.77 28.93 0.38 40.71l0 0m105.22 74.92c11.54-0.04 23.07 0.14 34.63-0.12-7.15-36.08-14.15-72.16-21.22-108.26 13.15 17.36 27.56 33.71 41.38 50.54 14.4-0.04 28.79 0 43.19-0.02-16.77-17.21-34.35-33.6-51.2-50.74 11.5-23.39 22.61-46.99 33.76-70.55-12.95-0.04-25.87 0.06-38.8-0.06-7.33 16.93-14.44 33.97-21.64 50.94-4.27-4.13-8.48-8.33-12.62-12.58-2.38-12.76-4.69-25.55-7.11-38.34-11.48 0.06-22.95 0.02-34.41 0.04 11.21 59.76 22.73 119.44 34.05 179.15l0 0" fill="#213553"/></g></g></svg>
