<svg xmlns="http://www.w3.org/2000/svg" width="64" height="64" viewBox="0 0 64 66" color="#213553"><path d="m16 30.8 0 0c-1.9 1.5-2.9 4.1-2.9 6.5 0.1 1.1 0.3 2.5 1.5 2.8 1.1 0.2 2.1-0.7 2.7-1.5 1.7-2.5 1.8-5.6 2.4-8.4-1.3-0.4-2.7-0.2-3.7 0.6m-2.3-3.2c3.5-1.9 7.7-1.7 11.4-0.6-0.9 5.5-2.4 11-2.2 16.6-1.5 0-3 0-4.6 0 0-1.1 0.1-2.2 0.3-3.4-0.7 1.3-1.7 2.5-3 3.1-1.8 0.9-4.3 0.8-5.8-0.7C8.4 41.5 7.9 39.6 8 37.9 8 33.8 10.1 29.6 13.8 27.6l0 0m13.5 1.3c1.1-1.5 2.9-2.3 4.7-2.6 2-0.2 4.1-0.1 5.9 0.7-0.4 1.2-0.8 2.4-1.2 3.6-1.5-0.5-3.2-1.1-4.7-0.4-0.9 0.4-1 1.6-0.2 2.2 1.3 1 3 1.5 4.1 2.8 1.5 1.5 1.3 4 0.3 5.8-1 1.7-2.9 2.6-4.8 2.9-2.4 0.4-5 0.1-7.2-1.1 0.4-1.2 0.8-2.4 1.2-3.6 1.6 0.8 3.5 1.5 5.3 1 1-0.3 1.4-1.7 0.5-2.4-1.3-1.1-3.1-1.6-4.1-3-1.3-1.6-1.1-4.1 0.1-5.8l0 0M42.1 18.3c1.6 0 3.3 0 4.9 0-1 5.1-2 10.2-3 15.3 1.9-2.5 3.9-4.8 5.9-7.2 2 0 4.1 0 6.1 0-2.4 2.4-4.9 4.8-7.2 7.2 1.6 3.3 3.2 6.7 4.8 10-1.8 0-3.7 0-5.5 0-1-2.4-2-4.8-3.1-7.2-0.6 0.6-1.2 1.2-1.8 1.8-0.3 1.8-0.7 3.6-1 5.4-1.6 0-3.2 0-4.9 0 1.6-8.5 3.2-16.9 4.8-25.4l0 0" fill="#213553"/></svg>
