<svg xmlns="http://www.w3.org/2000/svg" version="1.1" width="64" height="64" id="svg2">
  <g transform="translate(0,-988.36218)" id="layer1">
    <path d="m 34.475732,1020.3932 c 0,-1.5551 -1.181901,-2.8158 -2.639851,-2.8158 -1.457951,0 -2.639852,1.2607 -2.639852,2.8158 0,1.5552 1.181901,2.8159 2.639852,2.8159 1.45795,0 2.639851,-1.2607 2.639851,-2.8159 z m -16.906395,17.5466 c 0.367893,0.6082 0.855409,1.1229 1.446436,1.4746 1.182051,0.7032 2.665938,0.7549 4.249997,0.3014 1.584059,-0.4536 3.341695,-1.4134 5.241328,-2.8618 a 1.002073,1.002073 0 0 0 -1.223358,-1.5874 c -1.76367,1.3447 -3.334868,2.1689 -4.572097,2.5232 -1.237229,0.3542 -2.096339,0.2364 -2.683844,-0.1132 -0.587506,-0.3495 -1.03481,-0.9981 -1.254208,-2.2022 -0.219398,-1.2041 -0.164619,-2.9061 0.297782,-5.0186 0.613898,-2.8047 1.985832,-5.9537 3.618635,-9.1152 0.288754,0.6575 0.442765,1.2592 0.763755,1.925 2.66619,5.5301 5.942489,10.235 9.147496,13.4433 1.602503,1.6042 3.191549,2.8366 4.726728,3.5974 1.535179,0.7608 3.077321,1.0787 4.475051,0.6078 1.397729,-0.4708 2.341116,-1.6878 2.836001,-3.1858 0.494885,-1.4979 0.613175,-3.3348 0.435558,-5.4385 -0.355233,-4.2075 -1.890821,-9.5002 -4.557011,-15.0303 a 1.0001296,1.0001296 0 1 0 -1.798725,0.875 c 2.580587,5.3525 4.046639,10.465 4.371972,14.3183 0.162667,1.9267 0.02545,3.545 -0.34142,4.6555 -0.366876,1.1105 -0.877753,1.6842 -1.584156,1.9221 -0.706403,0.238 -1.701707,0.1161 -2.951219,-0.5031 -1.249513,-0.6193 -2.698371,-1.7394 -4.193955,-3.2366 -2.991166,-2.9943 -6.187008,-7.5475 -8.767594,-12.9 -0.557266,-1.1559 -0.847084,-2.2096 -1.301469,-3.3341 1.182243,-2.0497 2.457375,-3.9584 3.871629,-5.846 7.587432,-0.1632 15.723907,1.1159 20.687079,3.6479 1.541293,0.7863 2.64112,1.6181 3.309494,2.3882 0.668374,0.7701 0.918214,1.4349 0.89006,2.0362 -0.02816,0.6014 -0.331725,1.2091 -1.067137,1.9058 -0.735411,0.6966 -1.905578,1.432 -3.51215,2.0569 a 1.0044034,1.0044034 0 1 0 0.735542,1.8693 c 1.774152,-0.6901 3.151983,-1.5029 4.153168,-2.4513 1.001184,-0.9484 1.604894,-2.082 1.661551,-3.2921 0.05666,-1.2101 -0.451641,-2.4013 -1.357897,-3.4456 -0.906256,-1.0442 -2.198261,-1.9931 -3.898696,-2.8606 -5.109066,-2.6064 -12.707526,-3.8409 -20.087064,-3.8464 1.995005,-2.4258 4.058121,-4.6374 6.133911,-6.2201 1.74157,-1.3279 3.271459,-2.1619 4.50222,-2.5229 1.230761,-0.3609 2.106803,-0.2614 2.697622,0.071 0.590819,0.3325 1.046938,0.9586 1.281763,2.1182 0.234825,1.1596 0.182362,2.7921 -0.242671,4.8507 a 1.0004882,1.0004882 0 1 0 1.958514,0.41 c 0.461796,-2.2366 0.565892,-4.1153 0.252825,-5.6613 -0.313066,-1.5459 -1.094356,-2.8016 -2.280397,-3.4691 -1.18604,-0.6676 -2.65247,-0.7059 -4.221783,-0.2457 -1.569312,0.4603 -3.295492,1.4311 -5.171452,2.8614 -2.58956,1.9745 -5.069941,4.74 -7.42643,7.7496 -1.818792,0.079 -3.472201,0.3658 -5.181992,0.6254 -0.273389,-1.262 -0.666725,-2.6304 -0.758212,-3.714 -0.162667,-1.9266 -0.02546,-3.545 0.34142,-4.6555 0.366875,-1.1104 0.877752,-1.6841 1.584155,-1.9221 1.098854,-0.3702 3.10722,0.2131 5.544879,2.2379 a 1.0001,1.0001 0 1 0 1.264635,-1.5153 c -2.685082,-2.2303 -5.238668,-3.35031 -7.447294,-2.60627 -1.39773,0.47087 -2.341116,1.68787 -2.836001,3.18587 -0.494885,1.4979 -0.613175,3.3348 -0.435558,5.4385 0.09642,1.142 0.500682,2.5262 0.772649,3.8117 -0.534488,0.1074 -1.148279,0.1183 -1.661937,0.2454 -4.8829,1.2083 -8.0335493,3.0718 -8.8755012,5.7159 -0.4209755,1.3221 -0.1079332,2.7462 0.7874146,3.9794 0.8953476,1.2332 2.3529806,2.3441 4.3202596,3.3477 a 1.0001,1.0001 0 1 0 0.886051,-1.7791 c -1.784686,-0.9104 -2.970112,-1.8815 -3.590647,-2.7362 -0.620535,-0.8547 -0.70848,-1.5058 -0.485568,-2.2059 0.445825,-1.4001 2.828251,-3.2465 7.414356,-4.3813 0.487142,-0.1206 1.095002,-0.1163 1.606168,-0.2172 0.418664,1.5607 1.01193,3.1896 1.658097,4.8696 -2.083872,3.7787 -3.819557,7.6385 -4.587352,11.1462 -0.500648,2.2872 -0.610756,4.2168 -0.322043,5.8014 0.144358,0.7923 0.382744,1.4985 0.750637,2.1068 z m 5.41977,-21.3383 c -0.344525,-0.992 -0.706703,-1.9385 -0.963889,-2.8745 1.071888,-0.1549 2.080665,-0.3543 3.212336,-0.4344 -0.784062,1.1034 -1.540699,2.1529 -2.248447,3.3089 z" id="path3878" style="fill:#cccccc;fill-opacity:1;stroke:none" />
  </g>
</svg>
