<svg xmlns="http://www.w3.org/2000/svg" viewBox="0 0 64 64" color="#67595d"><path d="m34.87 32.05c0-1.79-1.36-3.24-3.04-3.24-1.68 0-3.04 1.45-3.04 3.24 0 1.79 1.36 3.24 3.04 3.24 1.68 0 3.04-1.45 3.04-3.24zm-19.44 20.18c0.42 0.7 0.98 1.29 1.66 1.7 1.36 0.81 3.07 0.87 4.89 0.35 1.82-0.52 3.84-1.63 6.03-3.29 0.47-0.37 0.57-1.14 0.2-1.61-0.37-0.48-1.13-0.58-1.61-0.21-2.03 1.55-3.84 2.49-5.26 2.9-1.42 0.41-2.41 0.27-3.09-0.13-0.68-0.4-1.19-1.15-1.44-2.53-0.25-1.38-0.19-3.34 0.34-5.77 0.71-3.23 2.28-6.85 4.16-10.48 2.89 6.27 6.86 13.05 11.4 17.67 1.84 1.84 3.67 3.26 5.44 4.14 1.77 0.87 3.54 1.24 5.15 0.7 1.61-0.54 2.69-1.94 3.26-3.66 0.57-1.72 0.71-3.84 0.5-6.25-0.41-4.84-2.17-10.93-5.24-17.28-0.26-0.54-1-0.79-1.54-0.53-0.54 0.26-0.79 1-0.53 1.54 2.97 6.16 4.65 12.03 5.03 16.47 0.19 2.22 0.03 4.08-0.39 5.35-0.42 1.28-1.01 1.94-1.82 2.21-0.81 0.27-1.96 0.13-3.39-0.58-1.44-0.71-3.1-2-4.82-3.72-5.48-6.19-8.87-11.92-11.58-18.67 1.36-2.36 2.83-4.55 4.45-6.72 8.73-0.19 18.08 1.28 23.79 4.2 1.77 0.9 3.04 1.86 3.81 2.75 0.77 0.89 1.06 1.65 1.02 2.34-0.03 0.69-0.38 1.39-1.23 2.19-0.85 0.8-2.19 1.65-4.04 2.37-0.56 0.22-0.87 0.93-0.65 1.5 0.22 0.56 0.93 0.87 1.5 0.65 2.04-0.79 3.62-1.73 4.78-2.82 1.15-1.09 1.85-2.39 1.91-3.79 0.07-1.39-0.52-2.76-1.56-3.96-1.04-1.2-2.53-2.29-4.48-3.29-5.88-3-14.61-4.42-23.1-4.42 2.29-2.79 4.67-5.33 7.05-7.15 2-1.53 3.76-2.49 5.18-2.9 1.42-0.42 2.42-0.3 3.1 0.08 0.68 0.38 1.2 1.1 1.47 2.44 0.27 1.33 0.21 3.21-0.28 5.58-0.13 0.59 0.3 1.24 0.89 1.36 0.59 0.12 1.24-0.3 1.36-0.89 0.53-2.57 0.65-4.73 0.29-6.51-0.36-1.78-1.26-3.22-2.62-3.99-1.36-0.77-3.05-0.81-4.86-0.28-1.8 0.53-3.79 1.65-5.95 3.29-2.98 2.27-5.83 5.45-8.54 8.91-2.09 0.09-3.99 0.26-5.96 0.56-0.31-1.45-0.77-2.86-0.87-4.11-0.19-2.22-0.03-4.08 0.39-5.35 0.42-1.28 1.01-1.94 1.82-2.21 1.26-0.43 3.57 0.25 6.38 2.57 0.43 0.5 1.33 0.5 1.75-0.01 0.43-0.51 0.27-1.39-0.3-1.73C26.2 8.58 23.26 7.3 20.72 8.15 19.11 8.69 18.03 10.09 17.46 11.82c-0.57 1.72-0.71 3.84-0.5 6.25 0.11 1.31 0.49 2.78 0.81 4.26-4.37 0.87-10.69 3.2-12.04 6.98-0.48 1.52-0.12 3.16 0.91 4.58 1.03 1.42 2.71 2.7 4.97 3.85 0.54 0.35 1.37 0.13 1.65-0.45 0.29-0.58-0.03-1.37-0.64-1.59-2.05-1.05-3.42-2.16-4.13-3.15-0.71-0.98-0.81-1.73-0.56-2.54 1.61-2.82 5.98-4.66 10.25-5.37 0.48 1.79 1.2 3.83 1.95 5.76-2.4 4.35-4.31 8.7-5.19 12.74-0.58 2.63-0.7 4.85-0.37 6.67 0.16 0.9 0.54 1.73 0.86 2.42zm6.23-24.54c-0.4-1.14-0.81-2.27-1.11-3.35 1.23-0.18 2.39-0.37 3.69-0.46-0.9 1.27-1.77 2.48-2.59 3.81z" fill="#67595d"/></svg>
