<svg xmlns="http://www.w3.org/2000/svg" viewBox="0 0 64 64" color="#65595c">
<path d="m 34.874716,32.051234 c 0,-1.788365 -1.359186,-3.23817 -3.035829,-3.23817 -1.676643,0 -3.035829,1.449805 -3.035829,3.23817 0,1.78848 1.359186,3.238285 3.035829,3.238285 1.676643,0 3.035829,-1.449805 3.035829,-3.238285 z m -19.442354,20.17859 c 0.423077,0.69943 0.98372,1.291335 1.663401,1.69579 1.359359,0.80868 3.065829,0.868135 4.887497,0.34661 1.821668,-0.52164 3.842949,-1.62541 6.027527,-3.29107 0.473726,-0.369824 0.5705,-1.13578 0.203641,-1.611806 -0.366858,-0.476027 -1.132195,-0.577583 -1.610503,-0.213704 -2.02822,1.546405 -3.835098,2.494235 -5.257911,2.90168 -1.422814,0.40733 -2.41079,0.27186 -3.086421,-0.13018 -0.675632,-0.401925 -1.190031,-1.147815 -1.442339,-2.53253 -0.252308,-1.384715 -0.189312,-3.342015 0.342449,-5.77139 0.705983,-3.225405 2.283707,-6.846755 4.16143,-10.48248 2.885109,6.268606 6.860888,13.051233 11.397939,17.673545 1.842879,1.84483 3.670281,3.26209 5.435737,4.13701 1.765456,0.87492 3.538919,1.240505 5.146309,0.69897 1.607388,-0.54142 2.692283,-1.94097 3.261401,-3.66367 0.569118,-1.722585 0.705151,-3.83502 0.500892,-6.254275 -0.408518,-4.838625 -2.174444,-10.92523 -5.240563,-17.284845 -0.263436,-0.541541 -0.995851,-0.794577 -1.537392,-0.531142 -0.541541,0.263436 -0.794578,0.995851 -0.531142,1.537392 2.967675,6.155375 4.653635,12.03475 5.027768,16.466045 0.187067,2.215705 0.02927,4.07675 -0.392633,5.353825 -0.421907,1.277075 -1.009416,1.93683 -1.821779,2.210415 -0.812364,0.2737 -1.956963,0.133515 -3.393902,-0.578565 -1.43694,-0.712195 -3.103127,-2.00031 -4.823048,-3.72209 -5.481064,-6.192886 -8.871825,-11.916789 -11.579423,-18.669215 1.35958,-2.357155 2.825981,-4.55216 4.452374,-6.7229 8.725546,-0.18768 18.082493,1.283285 23.79014,4.195085 1.772487,0.904245 3.037288,1.860815 3.805919,2.74643 0.76863,0.885615 1.055946,1.650135 1.023569,2.34163 -0.03238,0.69161 -0.381484,1.390465 -1.227208,2.19167 -0.845723,0.80109 -2.191415,1.6468 -4.038973,2.365435 -0.562789,0.221449 -0.873359,0.934996 -0.65191,1.497784 0.221449,0.562789 0.934995,0.87336 1.497784,0.651911 2.040275,-0.793615 3.62478,-1.728335 4.776143,-2.818995 1.151362,-1.09066 1.845628,-2.3943 1.910784,-3.785915 0.06516,-1.391615 -0.519388,-2.761495 -1.561582,-3.96244 -1.042194,-1.20083 -2.528,-2.292065 -4.4835,-3.28969 -5.875426,-2.99736 -14.613655,-4.417035 -23.100124,-4.42336 2.294256,-2.78967 4.666839,-5.33301 7.053998,-7.153115 2.002805,-1.527085 3.762178,-2.486185 5.177553,-2.901335 1.415375,-0.415035 2.422823,-0.30061 3.102265,0.08165 0.679442,0.382375 1.203979,1.10239 1.474027,2.43593 0.270049,1.33354 0.209717,3.210915 -0.279071,5.578305 -0.125258,0.590333 0.299083,1.241308 0.889754,1.364961 0.590671,0.123652 1.240491,-0.302456 1.362537,-0.893461 0.531065,-2.57209 0.650776,-4.732595 0.290749,-6.510495 -0.360026,-1.777785 -1.25851,-3.22184 -2.622457,-3.9894654 -1.363946,-0.76774 -3.05034,-0.811785 -4.85505,-0.282555 -1.804709,0.529345 -3.789816,1.6457654 -5.94717,3.2906104 -2.977994,2.270675 -5.830432,5.451 -8.540395,8.91204 -2.09161,0.09085 -3.993031,0.258644 -5.95929,0.557184 -0.314398,-1.4513 -0.766734,-2.862934 -0.871944,-4.109074 -0.187067,-2.21559 -0.02928,-4.07675 0.392633,-5.353825 0.421906,-1.27696 1.009415,-1.936715 1.821778,-2.210415 1.263682,-0.4257304 3.573303,0.245065 6.376611,2.573585 0.434436,0.503069 1.327564,0.495544 1.753463,-0.01477 0.425899,-0.510316 0.273535,-1.390385 -0.299133,-1.727822 C 26.197727,8.5838736 23.261103,7.2958621 20.721183,8.1515081 19.113794,8.6930086 18.0289,10.092559 17.459782,11.815259 c -0.569118,1.722585 -0.705151,3.83502 -0.500892,6.254275 0.110883,1.3133 0.494771,2.783611 0.807534,4.261936 -4.367139,0.866192 -10.693297,3.196712 -12.0370414,6.977014 -0.4841218,1.520415 -0.1241232,3.15813 0.9055268,4.57631 1.0296497,1.41818 2.7059277,2.695715 4.9682986,3.849855 0.541701,0.3508 1.366956,0.125047 1.654664,-0.452642 0.287709,-0.577689 -0.02935,-1.37235 -0.635705,-1.593323 -2.052389,-1.04696 -3.4156292,-2.163725 -4.1292445,-3.14663 -0.7136152,-0.982905 -0.814752,-1.73167 -0.5584032,-2.536785 1.6137687,-2.821055 5.9805717,-4.656757 10.2520837,-5.369288 0.481464,1.794805 1.204225,3.830066 1.947317,5.762066 -2.396452,4.345505 -4.311477,8.703262 -5.194441,12.737117 -0.575746,2.63028 -0.70237,4.84932 -0.37035,6.67161 0.15696,0.896459 0.537945,1.72857 0.863233,2.42305 z m 6.232735,-24.539045 c -0.396203,-1.1408 -0.812708,-2.269781 -1.108472,-3.346181 1.232671,-0.178135 2.392765,-0.366939 3.694186,-0.459054 -0.901671,1.26891 -1.771804,2.475835 -2.585714,3.805235 z" fill="#65595c" />
</svg>
