<svg xmlns="http://www.w3.org/2000/svg" version="1.1" width="64" height="64" viewBox="0,0,64,64" color="#1f5081"><path d="m20.13 48.55-1.42-7.84c4.13 2.75 9.01 3.82 13.31 3.83 4.3 0.02 9.23-1.2 13.26-3.88l-1.3 7.61c-3.01 3.41-8.38 4.13-11.96 4.11-3.58-0.02-9-0.49-11.89-3.84zM17.54 36.22 14.19 16.96c0.66-3.13 10.78-5.35 17.83-5.37 7.05-0.02 16.82 2.37 17.77 5.37l-3.3 19.29c-3.59 3.95-11.21 4.26-14.46 4.27-3.26 0.02-10.6-0.38-14.48-4.31zm14.56 1.14c3.12-0.02 5.89-2.98 6-6.03 0.12-3.04-3.03-6.02-6.09-5.99-3.06 0.03-6.02 2.45-6.08 5.99-0.06 3.55 3.05 6.04 6.17 6.03zm-0.09-3.38c-1.35-0.02-2.8-1.15-2.74-2.65 0.06-1.5 1.31-2.67 2.74-2.65 1.44 0.02 2.42 1.17 2.54 2.65 0.12 1.48-1.19 2.68-2.54 2.65zm11.7-17.26c0.09-2.2-9.24-2.79-11.7-2.76-2.46 0.03-11.83 0.51-11.8 2.76 0.04 2.26 8.88 2.98 11.8 2.93 2.92-0.05 11.61-0.72 11.7-2.93z" fill="#1f5081"/></svg>
