<?xml version="1.0" encoding="UTF-8" standalone="no"?>
<!-- Created with Inkscape (http://www.inkscape.org/) -->

<svg xmlns:dc="http://purl.org/dc/elements/1.1/" xmlns:cc="http://creativecommons.org/ns#" xmlns:rdf="http://www.w3.org/1999/02/22-rdf-syntax-ns#" xmlns:svg="http://www.w3.org/2000/svg" xmlns="http://www.w3.org/2000/svg" version="1.1" width="64" height="64" id="svg2">
  <defs id="defs4" />
  <metadata id="metadata7">
    <rdf:RDF>
      <cc:Work rdf:about="">
        <dc:format>image/svg+xml</dc:format>
        <dc:type rdf:resource="http://purl.org/dc/dcmitype/StillImage" />
        <dc:title></dc:title>
      </cc:Work>
    </rdf:RDF>
  </metadata>
  <path d="m 20.127426,48.549511 -1.42443,-7.836784 c 4.128195,2.747977 9.013037,3.817405 13.314893,3.833181 4.301856,0.01578 9.234716,-1.197604 13.258855,-3.876198 l -1.301147,7.612861 c -3.0095,3.409118 -8.380259,4.128483 -11.957708,4.111717 -3.577449,-0.01677 -8.997056,-0.485907 -11.890463,-3.844777 z M 17.539681,36.217768 14.186839,16.962995 c 0.659794,-3.132162 10.781429,-5.348358 17.83105,-5.369444 7.049621,-0.02109 16.819747,2.371814 17.765094,5.369444 l -3.302399,19.287008 c -3.591183,3.946978 -11.207407,4.256113 -14.462695,4.274636 -3.255288,0.01852 -10.602345,-0.376134 -14.478208,-4.306871 z m 14.564241,1.136436 c 3.118209,-0.01726 5.885639,-2.984761 6.001663,-6.027131 0.116025,-3.04237 -3.027815,-6.02183 -6.087696,-5.992498 -3.059881,0.02933 -6.018139,2.445166 -6.082041,5.992498 -0.0639,3.547332 3.049864,6.044391 6.168074,6.027131 z m -0.08603,-3.375556 c -1.347668,-0.02458 -2.798404,-1.151646 -2.743347,-2.651575 0.05506,-1.499929 1.308104,-2.670032 2.743347,-2.653976 1.435243,0.01606 2.418306,1.169475 2.541835,2.653976 0.123528,1.484501 -1.194167,2.676157 -2.541835,2.651575 z m 11.70014,-17.263591 c 0.08961,-2.204954 -9.242167,-2.794468 -11.700143,-2.76488 -2.457976,0.02959 -11.833184,0.509276 -11.795203,2.76488 0.03798,2.255604 8.87665,2.981293 11.795203,2.927858 2.918553,-0.05344 11.610534,-0.722904 11.700143,-2.927858 z" id="path3118" style="fill:#1f5081;fill-opacity:1;stroke:none" />
</svg>
