<svg xmlns="http://www.w3.org/2000/svg" version="1.1" width="64" height="64" viewBox="0,0,64,64" color="#f57d00"><path d="m14 14 36 0 0 36-36 0z" fill="#fff" class="inverted"/><path d="M15.3 8C11.2 8 8 11.2 8 15.3l0 33.5C8 52.8 11.2 56 15.3 56l33.5 0C52.8 56 56 52.8 56 48.8l0-33.5C56 11.2 52.8 8 48.8 8zm17.8 9.4c4 0 8.4 4.9 8.4 8.2l0 1.3c0 0.8 0.8 1.6 1.7 1.6l2.2 0c0.7 0 1.5 0.9 1.5 1.8l0 7.6c-0.2 5.4-5.1 8.9-9.1 8.9l-10.7 0c-5.5 0-9.7-4.5-9.7-9l0-11.6c0.2-4.6 4.2-8.8 9.1-8.8zm-6.3 7.6c-2.3 0.1-2.7 3.4 0.2 3.5l5.4 0c2.2-0.1 1.9-3.4 0.1-3.5zM26.4 35.7c-2 0.1-2 3.2 0 3.4l11.1 0c2.2-0.3 2.2-3.4 0-3.4z" fill="#f57d00"/></svg>
