<svg xmlns="http://www.w3.org/2000/svg" version="1.1" width="64" height="64" viewBox="0,0,64,64" color="#f57d00">
<path d="m 14,14 36,0 0,36 -36,0 z" fill="#fff" class="inverted" />
<path d="M 15.25,7.99999 C 11.234459,7.99999 8,11.23415 8,15.25 l 0,33.5 C 8,52.7659 11.234459,56 15.25,56 l 33.5,0 C 52.76554,56 56,52.7659 56,48.75 l 0,-33.5 C 56,11.23415 52.76554,7.99999 48.75,7.99999 z m 17.781443,9.354741 c 3.970172,-0.03627 8.400837,4.932827 8.388059,8.224243 l 0,1.313237 c 0,0.774704 0.777624,1.606938 1.661482,1.598035 l 2.187002,0 c 0.736964,0 1.538706,0.948772 1.546199,1.791253 l 0,7.575491 c -0.199659,5.443658 -5.058745,8.856965 -9.126685,8.941065 l -10.75,0 c -5.484952,0.033 -9.661326,-4.455827 -9.694697,-9.041181 l 0,-11.604045 c 0.174354,-4.585403 4.172219,-8.769698 9.132197,-8.798098 z m -6.312693,7.597114 c -2.299008,0.0851 -2.710588,3.350468 0.15625,3.459655 l 5.355548,0.03294 c 2.241905,-0.139168 1.886738,-3.379386 0.0625,-3.490854 z M 26.411113,35.7187 c -1.977049,0.149187 -2.025749,3.234974 0,3.421806 l 11.094137,0 c 2.239792,-0.287184 2.157082,-3.379787 0,-3.421806 z" fill="#f57d00" />
</svg>
