<svg xmlns="http://www.w3.org/2000/svg" viewBox="0 0 64 64" color="#7AC143"><path d="m13.93 15.46c1.78-0.21 4.42 0.64 5.59-0.52 0 0-0.06-4.35-0.06-5.55 0.09-0.97 0.5-2.26 0.69-2.89-3.28 3.28-6.63 6.53-9.88 9.82 1.15-0.51 2.54-0.83 3.67-0.85zM53.36 14.4C52.96 12.24 51.67 11.18 50.52 10.76 45.6 9.48 41.41 9.09 36.16 9.24 35.17 5.52 31.58 5.09 28.41 5.01 26.13 4.97 23.17 5.18 21.84 7.01 20.66 9.45 21.19 12.55 21.23 14.93c0 1.1-0.89 2-2 2-2.52 0.04-5.27-0.27-7.61 0.47-1.71 0.85-2.21 2.67-2.21 4.31 0.84 5.05 1.07 11.76 3.38 16.91 0.56 1.16 0.93 1.64 2.03 2.15 2.45 1.05 8.04 2.21 10.66 2.55 2.62 0.33 4.26 1.04 5.24-1.01 0.93-2.32 1.42-5.21 1.43-7.76 0-0.17 0.25-0.18 0.25 0 0 1.17-0.22 5.3 2.9 6.41 1.23 0.44 3.79 0.83 6.38 1.13 2.35 0.27 4.05 1.19 4.05 7.22 0 3.66-0.77 4.17-4.79 4.17-3.26 0-4.5 0.08-4.5-2.51 0-2.09 2.07-1.87 3.61-1.87 0.69 0 0.19-0.51 0.19-1.8 0-1.29 0.8-2.03 0.04-2.05-5.31-0.15-8.43-0.01-8.43 6.63 0 6.03 2.31 7.15 9.84 7.15 5.91 0 7.99-0.19 10.43-7.76 0.48-1.49 1.65-6.05 2.36-13.71 0.45-4.84-0.42-19.45-1.11-23.14zM40.97 30.67c0.18-1.49 0.8-3.31 2.97-3.24 2.41 0.08 2.75 2.36 2.75 3.9-2-0.8-3.76-0.86-5.73-0.66z" fill="#808084"/></svg>
