<svg xmlns="http://www.w3.org/2000/svg" viewBox="0 0 64 64" color="#6cc655"><path d="M12 32 32 12 52 32 32 52z" class="inverted" fill="#fff"/><path d="M21.7 53.7 6.9 38.8C5.1 37 5.1 33.1 6.9 31.4L28.1 10.1c1.7-1.7 5.5-1.7 7.2 0L56.6 31.4c1.8 1.8 1.8 5.7 0 7.4l-14.8 14.9c-0.9 0.9-2.3 1.5-3.7 1.5l-12.9 0c-1.3 0-2.6-0.6-3.5-1.5zm13.5-5.8c0.3-0.3 0.3-0.9 0-1.2l-2.9-2.9c-0.3-0.3-0.9-0.3-1.2 0l-2.9 2.9c-0.3 0.3-0.3 0.9 0 1.2l2.3 2.2 2.4 0zm0-12.3c0.2-0.2 0.2-0.7 0-0.9l-3.1-3.1c-0.2-0.2-0.7-0.2-0.9 0l-9 9c-0.3 0.3-0.3 1 0 1.3l2.1 2.1 2.4 0zm0-12.2c0.2-0.2 0.3-0.8 0-1l-3-3c-0.2-0.2-0.8-0.2-1.1 0L16 34.5c-0.2 0.2-0.3 0.8-0.1 1l2.4 2.3 2.3 0z" fill="#6cc655"/></svg>
