<svg xmlns="http://www.w3.org/2000/svg" width="64" height="64" viewBox="0 0 64 64" color="#6cc655"><path d="M 12,32 32,12 52,32 32,52 z" class="inverted" fill="#fff" /><path d="M 21.702265,53.652158 6.8619725,38.788278 C 5.1121886,37.035662 5.0996398,33.105234 6.8554005,31.35857 L 28.147807,10.076822 c 1.693775,-1.6929725 5.490696,-1.6930965 7.184278,0 L 56.61966,31.35857 c 1.751482,1.751004 1.750106,5.677464 0,7.429708 l -14.845795,14.86388 c -0.934876,0.936076 -2.338429,1.531524 -3.661348,1.531524 l -12.928551,0 c -1.267885,0 -2.585883,-0.63426 -3.481701,-1.531524 z m 13.535306,-5.77034 c 0.278376,-0.270444 0.277049,-0.892428 0,-1.164236 l -2.914613,-2.858944 c -0.275147,-0.269824 -0.88172,-0.270444 -1.156245,0 l -2.90122,2.858944 c -0.276422,0.272428 -0.273691,0.88908 0,1.164236 l 2.281525,2.243036 2.381281,0 z m 0.02084,-12.309852 c 0.224594,-0.222704 0.222203,-0.723912 0,-0.949096 l -3.066729,-3.10806 c -0.209903,-0.21266 -0.684788,-0.210924 -0.896559,0 l -9.032347,8.994712 c -0.316134,0.314712 -0.314529,1.022008 0,1.338332 l 2.142183,2.129948 2.378444,0 z m -0.02124,-12.224912 c 0.245274,-0.244404 0.26247,-0.7936 0.01794,-1.038872 l -2.983203,-2.991996 c -0.248832,-0.249612 -0.80814,-0.239692 -1.057234,0.0124 L 16.024509,34.532102 c -0.243412,0.24366 -0.326349,0.787772 -0.08147,1.029944 l 2.404765,2.333928 2.291684,0 z" fill="#6cc655"/></svg>
