<?xml version="1.0" encoding="UTF-8" standalone="no"?>
<!-- Created with Inkscape (http://www.inkscape.org/) -->

<svg xmlns:dc="http://purl.org/dc/elements/1.1/" xmlns:cc="http://creativecommons.org/ns#" xmlns:rdf="http://www.w3.org/1999/02/22-rdf-syntax-ns#" xmlns:svg="http://www.w3.org/2000/svg" xmlns="http://www.w3.org/2000/svg" version="1.1" width="200.9688" height="197.26425" id="svg2" xml:space="preserve"><metadata id="metadata8"><rdf:RDF><cc:Work rdf:about=""><dc:format>image/svg+xml</dc:format><dc:type rdf:resource="http://purl.org/dc/dcmitype/StillImage" /><dc:title></dc:title></cc:Work></rdf:RDF></metadata><defs id="defs6"><clipPath id="clipPath18"><path d="m 0,551.986 530.973,0 L 530.973,0 0,0 0,551.986 z" id="path20" /></clipPath></defs><g transform="matrix(1.25,0,0,-1.25,15,182.26427)" id="g10"><g id="g14"><path d="m 438.25,73.03125 c -41.68375,0 -75.46875,33.80875 -75.46875,75.5 0,33.35 21.6325,61.64375 51.625,71.625 3.7725,0.69875 5.15625,-1.63125 5.15625,-3.625 0,-1.79875 -0.0925,-7.755 -0.125,-14.0625 -21,4.56625 -25.40625,-8.90625 -25.40625,-8.90625 C 390.5975,184.83875 385.625,182.5 385.625,182.5 c -6.84875,-4.685 0.53125,-4.5625 0.53125,-4.5625 7.58,0.5325 11.5625,7.78125 11.5625,7.78125 6.7325,11.53875 17.66125,8.17875 21.96875,6.25 0.67875,-4.8775 2.65375,-8.20875 4.8125,-10.09375 -16.76625,-1.9075 -34.40625,-8.3575 -34.40625,-37.28125 0,-8.24 2.9525,-14.995 7.78125,-20.28125 -0.78375,-1.90125 -3.38125,-9.57125 0.71875,-19.96875 0,0 6.3575,-2.01625 20.78125,7.75 12.75409,-3.29621 25.91968,-3.21922 37.78125,0 14.4075,-9.76625 20.75,-7.75 20.75,-7.75 4.10875,10.3975 1.53375,18.0675 0.75,19.96875 4.84,5.28625 7.75,12.04125 7.75,20.28125 0,28.99375 -17.66,35.35 -34.46875,37.21875 2.7075,2.3425 5.125,6.9575 5.125,14 0,10.1 -0.0937,18.2325 -0.0937,20.71875 0,2.01 1.36125,4.365 5.1875,3.625 29.9775,-9.9925 51.59375,-38.285 51.59375,-71.625 0,-41.69125 -33.81125,-75.5 -75.5,-75.5 z M 389.40625,180.5 c -0.1775,0.37625 0.1075,0.90875 0.65625,1.15625 0.5375,0.2575 1.14625,0.12625 1.3125,-0.25 0.18875,-0.37625 -0.14,-0.87875 -0.6875,-1.125 -0.60936,-0.29228 -1.18175,-0.0687 -1.28125,0.21875 z m 3.25,2.40625 c -0.365,0.3375 -0.27625,1.03625 0.21875,1.5625 0.47625,0.5275 1.2025,0.70875 1.5625,0.375 0.37625,-0.33875 0.27625,-1.06125 -0.21875,-1.59375 -0.60668,-0.58417 -1.09215,-0.6186 -1.5625,-0.34375 z m 3.0625,3.8125 c -0.47375,0.3225 -0.4625,1.14 0,1.8125 0.4675,0.67125 1.225,0.97875 1.6875,0.65625 0.4725,-0.32875 0.46125,-1.16125 0,-1.84375 -0.58632,-0.65808 -0.98982,-0.9381 -1.6875,-0.625 z m 3.375,4.4375 c -0.41375,0.45625 -0.2225,1.33 0.4375,1.9375 0.645,0.62375 1.52375,0.7375 1.9375,0.28125 0.44,-0.45125 0.24875,-1.33 -0.40625,-1.9375 -0.75304,-0.61237 -1.39207,-0.75161 -1.96875,-0.28125 z m 6.125,3 c -0.61143,-0.007 -1.11687,0.2725 -1.25,0.71875 -0.1725,0.5975 0.39625,1.30375 1.25,1.5625 0.855,0.25125 1.69125,-0.0337 1.875,-0.625 0.14412,-0.96685 -0.94972,-1.61235 -1.875,-1.65625 z m 12,0.31245 c -0.87625,0.16125 -1.515,0.78375 -1.40625,1.40625 0.11125,0.60125 0.93625,0.97375 1.8125,0.8125 0.89125,-0.16625 1.51375,-0.8 1.40625,-1.40625 -0.28193,-0.73049 -0.75583,-0.94347 -1.8125,-0.8125 z m -5.5625,0.68755 c -0.90125,0.0163 -1.625,0.5275 -1.625,1.15625 0.01,0.6125 0.75375,1.11375 1.65625,1.09375 0.8975,-0.0112 1.615,-0.5025 1.59375,-1.125 0,-0.6175 -0.7275,-1.1425 -1.625,-1.125 z" transform="matrix(0.8,0,0,-0.8,-282.225,184.23642)" id="path28" style="fill:#1b1817;fill-opacity:1;fill-rule:evenodd;stroke:none" /></g></g></svg>