<svg xmlns="http://www.w3.org/2000/svg" version="1.1" width="64" height="64" viewBox="5,5,190,190" color="#1b1817"><path d="M100.5 24.6C58.8 24.6 25 58.4 25 100.1c0 33.4 21.6 61.6 51.6 71.6 3.8 0.7 5.2-1.6 5.2-3.6 0-1.8-0.1-7.8-0.1-14.1-21 4.6-25.4-8.9-25.4-8.9-3.5-8.7-8.5-11-8.5-11-6.8-4.7 0.5-4.6 0.5-4.6 7.6 0.5 11.6 7.8 11.6 7.8 6.7 11.5 17.7 8.2 22 6.3 0.7-4.9 2.7-8.2 4.8-10.1-16.8-1.9-34.4-8.4-34.4-37.3 0-8.2 3-15 7.8-20.3-0.8-1.9-3.4-9.6 0.7-20 0 0 6.4-2 20.8 7.8 12.8-3.3 25.9-3.2 37.8 0 14.4-9.8 20.8-7.7 20.8-7.7 4.1 10.4 1.5 18.1 0.8 20 4.8 5.3 7.8 12 7.8 20.3 0 29-17.7 35.4-34.5 37.2 2.7 2.3 5.1 7 5.1 14 0 10.1-0.1 18.2-0.1 20.7 0 2 1.4 4.4 5.2 3.6 30-10 51.6-38.3 51.6-71.6 0-41.7-33.8-75.5-75.5-75.5zM53.6 133.1c0.2-0.4-0.1-0.9-0.7-1.1-0.6-0.3-1.2-0.1-1.3 0.2-0.1 0.3 0.2 0.8 0.7 1.1 0.5 0.3 1.1 0.1 1.3-0.2zm3.1 3.4c0.4-0.3 0.3-1.1-0.2-1.6-0.6-0.6-1.1-0.6-1.5-0.3-0.4 0.3-0.3 1 0.15 1.5 0.45 0.5 1.15 0.7 1.55 0.4zm3 4.3c0.5-0.3 0.5-1.2 0-1.8-0.6-0.7-1-0.9-1.6-0.6-0.6 0.3-0.6 1.1-0.1 1.75 0.5 0.65 1.2 0.95 1.7 0.65zm4 4.1c0.4-0.5 0.2-1.3-0.4-1.9-0.8-0.6-1.4-0.8-1.8-0.3-0.4 0.5-0.2 1.3 0.35 1.9 0.55 0.6 1.45 0.7 1.85 0.3zm2.6 1.5c-0.2 0.6 0.4 1.3 1.3 1.6 0.9 0.3 1.7 0 1.9-0.6 0.1-1-0.9-1.6-1.75-1.65C66.9 145.7 66.4 146 66.3 146.4zM79.5 146c-0.9 0.2-1.5 0.8-1.4 1.4 0.1 0.6 0.9 1 1.8 0.8 0.9-0.2 1.5-0.8 1.4-1.4-0.3-0.7-0.8-0.9-1.8-0.8zm-7.2 1.9c0 0.6 0.8 1.1 1.7 1.1 0.9 0 1.6-0.5 1.6-1.1 0-0.6-0.7-1.1-1.65-1.15C73 146.7 72.3 147.2 72.3 147.9z" fill="#1b1817"/></svg>
