<svg xmlns="http://www.w3.org/2000/svg" version="1.1" width="201" height="197"><path d="m438.3 73c-41.7 0-75.5 33.8-75.5 75.5 0 33.4 21.6 61.6 51.6 71.6 3.8 0.7 5.2-1.6 5.2-3.6 0-1.8-0.1-7.8-0.1-14.1-21 4.6-25.4-8.9-25.4-8.9-3.5-8.7-8.5-11-8.5-11-6.8-4.7 0.5-4.6 0.5-4.6 7.6 0.5 11.6 7.8 11.6 7.8 6.7 11.5 17.7 8.2 22 6.3 0.7-4.9 2.7-8.2 4.8-10.1-16.8-1.9-34.4-8.4-34.4-37.3 0-8.2 3-15 7.8-20.3-0.8-1.9-3.4-9.6 0.7-20 0 0 6.4-2 20.8 7.8 12.8-3.3 25.9-3.2 37.8 0 14.4-9.8 20.8-7.7 20.8-7.7 4.1 10.4 1.5 18.1 0.8 20 4.8 5.3 7.8 12 7.8 20.3 0 29-17.7 35.4-34.5 37.2 2.7 2.3 5.1 7 5.1 14 0 10.1-0.1 18.2-0.1 20.7 0 2 1.4 4.4 5.2 3.6 30-10 51.6-38.3 51.6-71.6 0-41.7-33.8-75.5-75.5-75.5zm-48.9 107.5c-0.2 0.4 0.1 0.9 0.7 1.2 0.5 0.3 1.1 0.1 1.3-0.2 0.2-0.4-0.1-0.9-0.7-1.1-0.6-0.3-1.2-0.1-1.3 0.2zm3.3 2.4c-0.4 0.3-0.3 1 0.2 1.6 0.5 0.5 1.2 0.7 1.6 0.4 0.4-0.3 0.3-1.1-0.2-1.6-0.6-0.6-1.1-0.6-1.6-0.3zm3.1 3.8c-0.5 0.3-0.5 1.1 0 1.8 0.5 0.7 1.2 1 1.7 0.7 0.5-0.3 0.5-1.2 0-1.8-0.6-0.7-1-0.9-1.7-0.6zm3.4 4.4c-0.4 0.5-0.2 1.3 0.4 1.9 0.6 0.6 1.5 0.7 1.9 0.3 0.4-0.5 0.2-1.3-0.4-1.9-0.8-0.6-1.4-0.8-2-0.3zm6.1 3c-0.6 0-1.1 0.3-1.2 0.7-0.2 0.6 0.4 1.3 1.3 1.6 0.9 0.3 1.7 0 1.9-0.6 0.1-1-0.9-1.6-1.9-1.7zm12 0.3c-0.9 0.2-1.5 0.8-1.4 1.4 0.1 0.6 0.9 1 1.8 0.8 0.9-0.2 1.5-0.8 1.4-1.4-0.3-0.7-0.8-0.9-1.8-0.8zm-5.6 0.7c-0.9 0-1.6 0.5-1.6 1.2 0 0.6 0.8 1.1 1.7 1.1 0.9 0 1.6-0.5 1.6-1.1 0-0.6-0.7-1.1-1.6-1.1z" transform="translate(-337.78125,-48.031255)" fill="#1b1817"/></svg>
