<svg xmlns="http://www.w3.org/2000/svg" viewBox="0 0 64 64" color="#dc4e41"><path d="m49.98 33.94-5.05 0.05 0-4.2 4.95 0 0-5.04 4.02 0 0 5.04 5.05 0.05 0.05 4.15-5.1 0 0 4.91-3.97 0.05zm-28.24-18.68c-9.24 0-16.74 7.49-16.74 16.74 0 9.24 7.49 16.74 16.74 16.74 9.24 0 16.74-7.49 16.74-16.74-0.01-0.76-0.07-1.52-0.18-2.28l-15.62 0.05 0 5.08 10.49 0c-1.35 5.08-5.94 8.62-11.2 8.62-6.41 0-11.61-5.2-11.61-11.61 0-6.41 5.2-11.61 11.61-11.61 2.65 0 5.31 1 7.37 2.67l3.54-3.4c-3.06-2.74-7.02-4.26-11.13-4.27z" fill="#dc4e41"/></svg>
