<?xml version="1.0" encoding="UTF-8" standalone="no"?>
<!-- Created with Inkscape (http://www.inkscape.org/) -->

<svg xmlns:dc="http://purl.org/dc/elements/1.1/" xmlns:cc="http://creativecommons.org/ns#" xmlns:rdf="http://www.w3.org/1999/02/22-rdf-syntax-ns#" xmlns:svg="http://www.w3.org/2000/svg" xmlns="http://www.w3.org/2000/svg" version="1.1" width="138" height="138" id="svg3020">
  <metadata id="metadata3026">
    <rdf:RDF>
      <cc:Work rdf:about="">
        <dc:format>image/svg+xml</dc:format>
        <dc:type rdf:resource="http://purl.org/dc/dcmitype/StillImage" />
        <dc:title></dc:title>
      </cc:Work>
    </rdf:RDF>
  </metadata>
  <defs id="defs3024" />
  <path d="M 12.10435,94.725257 C 22.304106,80.329145 42.00266,79.109143 51.742978,80.400511 48.982246,77.501477 42.172828,72.108967 47.023242,63.200169 25.112422,65.899779 18.133968,52.428047 17.129676,41.811615 15.132278,24.042713 30.700732,11.221173 46.74847,11.046143 l 35.419874,-0.0337 c -1.22093,1.103906 -7.129148,5.02371 -8.48022,5.031094 l -9.295826,0.0508 c 23.707906,22.307612 0.748626,41.01626 -4.040202,44.879342 -9.473886,11.501094 20.275006,17.202564 18.713358,36.720168 0,17.719263 -14.852084,29.316063 -38.23455,29.293673 C 14.922416,126.91386 2.4834616,110.79596 12.10435,94.725257 z m 51.927598,21.536693 c 9.284666,-7.09068 7.06069,-17.594981 -0.11206,-24.598733 -4.318548,-4.216798 -9.530604,-8.192018 -20.5007,-6.889784 -12.907366,1.532204 -22.285144,7.748904 -21.79578,17.448057 2.658598,20.63988 32.395428,21.14821 42.40854,14.04046 z M 57.690986,55.728483 c 10.674222,-8.752148 0.751966,-39.457268 -13.836872,-39.457268 -9.309912,0 -14.109372,6.726838 -14.494758,16.170092 -0.72007,17.64416 15.382944,33.904232 28.33163,23.287176 z m 47.291454,11.214846 -16.05022,0.10802 0.03644,-8.066564 15.94093,-0.0377 0.001,-15.940928 8.06656,8e-6 0.0377,15.940924 16.05023,0.147 0.0728,7.95727 -16.15952,-0.03516 0.0352,16.013788 -7.95727,0.14572 z" id="path3030" style="fill:#df4a32;fill-opacity:1;stroke:none" />
</svg>
