<svg xmlns="http://www.w3.org/2000/svg" version="1.1" width="64" height="64" viewBox="-15,-15,162,162"><path d="M12.1 94.7C22.3 80.3 42 79.1 51.7 80.4 49 77.5 42.2 72.1 47 63.2 25.1 65.9 18.1 52.4 17.1 41.8 15.1 24 30.7 11.2 46.7 11l35.4 0c-1.2 1.1-7.1 5-8.5 5l-9.3 0.1c23.7 22.3 0.7 41-4 44.9-9.5 11.5 20.3 17.2 18.7 36.7 0 17.7-14.9 29.3-38.2 29.3C14.9 126.9 2.5 110.8 12.1 94.7zm51.9 21.5c9.3-7.1 7.1-17.6-0.1-24.6-4.3-4.2-9.5-8.2-20.5-6.9-12.9 1.5-22.3 7.7-21.8 17.4 2.7 20.6 32.4 21.1 42.4 14zM57.7 55.7c10.7-8.8 0.8-39.5-13.8-39.5-9.3 0-14.1 6.7-14.5 16.2-0.7 17.6 15.4 33.9 28.3 23.3zm47.3 11.2-16.1 0.1 0-8.1 15.9 0 0-15.9 8.1 0 0 15.9 16.1 0.1 0.1 8-16.2 0 0 16-8 0.1z" fill="#dd4b39"/></svg>
