<svg xmlns="http://www.w3.org/2000/svg" version="1.1" width="64" height="64"><path d="m 31.971546,8.0000053 -9.018514,4.0978427 0,11.365806 9.018514,-1.434953 9.07542,1.442028 0,-11.365191 -9.07542,-4.1055327 z m -17.22804,32.5944877 5.71151,2.069531 0,-17.62023 -5.71151,0.721321 0,14.829378 z m 6.944061,9.956077 9.610028,5.436824 0,-7.639544 -9.610028,-3.865912 0,6.068632 z m 10.315969,-26.965414 -10.315969,1.302992 0,18.22251 10.315969,3.737643 10.308895,-3.740718 0,-18.221588 -10.308895,-1.300839 z m 11.541139,19.075177 5.711817,-2.072299 0,-14.829071 -5.711817,-0.717938 0,17.619308 z m -10.84258,5.679827 9.610336,-3.863145 0,6.079093 -9.610336,5.443898 0,-7.659846 z" id="path28" style="fill:#bfff00;fill-opacity:1;fill-rule:evenodd;stroke:none" /></svg>
