<svg xmlns="http://www.w3.org/2000/svg" version="1.1" width="64" height="64" viewBox="-32 -32 576 576" color="#e44d26">
<path d="M108 471 75 101l363 0L404 471 256 512z" fill="#e44d26"/><path d="m256 481 120-33 28-316-148 0z" fill="#f16529"/><path d="m256 386-51-14-3-36-46 0 6 71 94 26zm0-118-60 0-4-47 64 0 0-45-114 0 12 137 102 0z" class="inverted" fill="#ebebeb"/><path d="m256 176 0 45 110 0 4-45zm0 92 0 45 56 0-5 59-51 14 0 47 93-26 12-139z" class="inverted" fill="#fff"/>
<path id="html5-text" d="m349 0h23v46h32V69H349V0zm-89 0h24L298 24 313 0h24V69H314V35l-16 25h0L282 35v34h-23V0zM206 23H186V0h64V23H229V69H206V23zM108 0h23v23h21V0h23V69H153v-23h-21v23H108V0z"/></svg>
