<svg xmlns="http://www.w3.org/2000/svg" version="1.1" width="64" height="64" viewBox="2,2,60,60" color="#0071ba"><path d="M32 8C18.7 8 8 18.7 8 32 8 45.3 18.7 56 32 56 45.3 56 56 45.3 56 32 56 18.7 45.3 8 32 8zm8.9 12.4c0.6 0.3 1.2 0.7 1.6 1.1 1.1 1.1 1.5 2.1 1.2 3l-5.1 7c-0.1 0.3-0.1 1 0 1.3L43.6 39.6c0.1 0.3 0.2 0.9 0.1 1.2-0.8 1.5-2.2 2.6-3.6 3.1-0.3 0-0.5 0-0.7-0.1L32.6 38.8c-0.3-0.2-0.8-0.2-1.2-0.1l-7.1 5.2c-0.6 0.2-1.1 0.1-1.7-0.3-1.3-0.9-2.2-2-2.5-3.2 0-0.4 0-0.5 0.2-0.7L25.3 32.8c0.2-0.5 0.1-1.1-0.2-1.5L20.3 24.8c-0.1-0.1-0.1-0.3-0.2-0.5 0.1-1.9 1.5-2.9 3.1-4 0.3-0.1 0.8-0.1 1.1 0l6.9 5.2c0.4 0.1 1.1 0.1 1.4-0.1L39.5 20.4c0.5-0.2 0.9-0.1 1.3 0z" fill="#0071ba"/></svg>
