<svg xmlns="http://www.w3.org/2000/svg" version="1.1" width="64" height="64" viewBox="2,2,60,60" color="#0071ba">
<path d="M 32,8 C 18.745167,8 8,18.745166 8,32 8,45.254834 18.745167,56 32,56 45.254834,56 56,45.254834 56,32 56,18.745166 45.254834,8 32,8 z m 8.875,12.375 c 0.569515,0.2566 1.188096,0.67185 1.625,1.09375 1.140432,1.1013 1.517767,2.08725 1.15625,3.03125 l -5.09375,6.96875 c -0.135922,0.3018 -0.139529,1.0128 0,1.3125 L 43.625,39.625 c 0.13225,0.2963 0.16119,0.87925 0.0625,1.21875 -0.833326,1.548253 -2.164291,2.64593 -3.5625,3.09375 -0.3379,-0.0011 -0.478745,-0.044 -0.65625,-0.125 L 32.625,38.75 c -0.333151,-0.1678 -0.835385,-0.1926 -1.21875,-0.0625 l -7.125,5.15625 c -0.592202,0.1871 -1.062958,0.12175 -1.65625,-0.28125 -1.276298,-0.906272 -2.160928,-1.991279 -2.5,-3.25 -0.0011,-0.3644 0.03034,-0.46945 0.15625,-0.71875 L 25.34375,32.75 c 0.193989,-0.4849 0.125963,-1.12215 -0.15625,-1.53125 L 20.34375,24.8125 c -0.06118,-0.0924 -0.14433,-0.3311 -0.1875,-0.5 0.05331,-1.87258 1.493086,-2.938798 3.0625,-3.96875 0.324684,-0.0981 0.815351,-0.08465 1.125,0.03125 l 6.939648,5.15625 c 0.364191,0.1386 1.098269,0.1064 1.418653,-0.0625 L 39.53125,20.375 c 0.475729,-0.212611 0.881587,-0.06551 1.34375,0 z" fill="#0071ba" />
</svg>
