<?xml version="1.0" encoding="UTF-8" standalone="no"?>
<!-- Created with Inkscape (http://www.inkscape.org/) -->

<svg xmlns:dc="http://purl.org/dc/elements/1.1/" xmlns:cc="http://creativecommons.org/ns#" xmlns:rdf="http://www.w3.org/1999/02/22-rdf-syntax-ns#" xmlns:svg="http://www.w3.org/2000/svg" xmlns="http://www.w3.org/2000/svg" xmlns:sodipodi="http://sodipodi.sourceforge.net/DTD/sodipodi-0.dtd" xmlns:inkscape="http://www.inkscape.org/namespaces/inkscape" id="svg2" version="1.1" inkscape:version="0.48.4 r9939" width="191.49126" height="191.48962" xml:space="preserve" sodipodi:docname="instagram.svg"><metadata id="metadata8"><rdf:RDF><cc:Work rdf:about=""><dc:format>image/svg+xml</dc:format><dc:type rdf:resource="http://purl.org/dc/dcmitype/StillImage" /></cc:Work></rdf:RDF></metadata><defs id="defs6"><clipPath clipPathUnits="userSpaceOnUse" id="clipPath16"><path d="m 0,113.386 113.386,0 L 113.386,0 0,0 0,113.386 z" id="path18" inkscape:connector-curvature="0" /></clipPath></defs><sodipodi:namedview pagecolor="#ffffff" bordercolor="#666666" borderopacity="1" objecttolerance="10" gridtolerance="10" guidetolerance="10" inkscape:pageopacity="0" inkscape:pageshadow="2" inkscape:window-width="1920" inkscape:window-height="1032" id="namedview4" showgrid="false" fit-margin-top="25" fit-margin-left="25" fit-margin-right="25" fit-margin-bottom="25" inkscape:zoom="4.7096383" inkscape:cx="92.163262" inkscape:cy="95.623376" inkscape:window-x="0" inkscape:window-y="24" inkscape:window-maximized="1" inkscape:current-layer="svg2" /><path d="m 139.28413,152.34081 -87.077002,0 c -7.211,0 -13.058,-5.849 -13.058,-13.065 l 0,-87.068998 c 0,-7.212 5.847,-13.058 13.058,-13.058 l 87.077002,0 c 7.212,0 13.058,5.846 13.058,13.058 l 0,87.068998 c 0,7.216 -5.846,13.065 -13.058,13.065 M 95.745128,73.975812 c -12.023,0 -21.768,9.745 -21.768,21.766998 0,12.022 9.745,21.77 21.768,21.77 12.023002,0 21.770002,-9.748 21.770002,-21.77 0,-12.021998 -9.747,-21.766998 -21.770002,-21.766998 m 43.539002,-17.416 c 0,-2.403 -1.95,-4.353 -4.358,-4.353 l -13.058,0 c -2.405,0 -4.353,1.95 -4.353,4.353 l 0,13.063 c 0,2.403 1.948,4.353 4.353,4.353 l 13.058,0 c 2.408,0 4.358,-1.95 4.358,-4.353 z m 0,30.473 -9.854,0 c 0.718,2.787 1.142,5.698998 1.142,8.709998 0,19.238 -15.592,34.829 -34.827002,34.829 -19.234,0 -34.827,-15.591 -34.827,-34.829 0,-3.011 0.426,-5.922998 1.144,-8.709998 l -9.855,0 0,47.892998 c 0,2.401 1.95,4.35 4.358,4.35 l 78.361002,0 c 2.408,0 4.358,-1.949 4.358,-4.35 z" style="fill:#2d292a;fill-opacity:1;fill-rule:evenodd;stroke:none" id="logo" inkscape:connector-curvature="0" sodipodi:nodetypes="csssssssccssscsssssssssccsssccssssc" /></svg>