<svg xmlns="http://www.w3.org/2000/svg" width="64" height="64" viewBox="10,10,170,170" color="#333"><path d="m139.3 152.3-87.1 0c-7.2 0-13.1-5.8-13.1-13.1l0-87.1c0-7.2 5.8-13.1 13.1-13.1l87.1 0c7.2 0 13.1 5.8 13.1 13.1l0 87.1c0 7.2-5.8 13.1-13.1 13.1M95.7 74c-12 0-21.8 9.7-21.8 21.8 0 12 9.7 21.8 21.8 21.8 12 0 21.8-9.7 21.8-21.8 0-12-9.7-21.8-21.8-21.8m43.5-17.4c0-2.4-1.9-4.4-4.4-4.4l-13.1 0c-2.4 0-4.4 2-4.4 4.4l0 13.1c0 2.4 1.9 4.4 4.4 4.4l13.1 0c2.4 0 4.4-1.9 4.4-4.4zm0 30.5-9.9 0c0.7 2.8 1.1 5.7 1.1 8.7 0 19.2-15.6 34.8-34.8 34.8-19.2 0-34.8-15.6-34.8-34.8 0-3 0.4-5.9 1.1-8.7l-9.9 0 0 47.9c0 2.4 2 4.4 4.4 4.4l78.4 0c2.4 0 4.4-1.9 4.4-4.3z" fill="#333"/></svg>
