<svg xmlns="http://www.w3.org/2000/svg" viewBox="0 0 64 64" color="#333"><path d="M48.1 53 15.9 53C13.2 53 11 50.8 11 48.1L11 15.9C11 13.2 13.2 11 15.9 11l32.3 0C50.8 11 53 13.2 53 15.9l0 32.3C53 50.8 50.8 53 48.1 53M32 24c-4.4 0-8.1 3.6-8.1 8.1 0 4.4 3.6 8.1 8.1 8.1 4.4 0 8.1-3.6 8.1-8.1 0-4.4-3.6-8.1-8.1-8.1m16.1-6.5c0-.9-.7-1.6-1.6-1.6l-4.9 0c-.9 0-1.6 .7-1.6 1.6l0 4.9c0 .9 .7 1.6 1.6 1.6l4.9 0c.9 0 1.6-.7 1.6-1.6zm0 11.3-3.7 0c.3 1 .4 2.1 .4 3.2 0 7.1-5.8 12.9-12.9 12.9-7.1 0-12.9-5.8-12.9-12.9 0-1.1 .1-2.2 .4-3.2l-3.7 0 0 17.8c0 .9 .7 1.6 1.6 1.6l29.1 0c.9 0 1.6-.7 1.6-1.6z" fill="#333"/></svg>
