<svg xmlns="http://www.w3.org/2000/svg" version="1.1" width="64" height="64" viewBox="1 1 62 62" color="#000"><path d="m14 10.6-6 7.5 0 2.1c0 6 9.8 6 9.8 0 0 6 9.4 6 9.4 0 0 6 9.8 6 9.8 0 0 6 9.4 6 9.4 0 0 6 9.8 6 9.8 0l0-2.1-6-7.5-7.1 0-7.1 0-7.5 0-7.1 0zm3.7 13.2c-0.3 0.4-0.6 0.7-0.9 1-1.1 0.9-2.5 1.3-3.9 1.3-0.4 0-0.8 0-1.1-0.1l0 27.3 40.5 0 0-27.3c-0.4 0.1-0.7 0.1-1.1 0.1-1.4 0-2.8-0.4-3.9-1.3-0.3-0.3-0.6-0.6-0.9-1-0.3 0.4-0.5 0.7-0.9 1-1.1 0.9-2.5 1.3-3.8 1.3-1.4 0-2.8-0.4-3.8-1.3-0.3-0.3-0.6-0.6-0.9-1-0.3 0.4-0.6 0.7-0.9 1C34.8 25.8 33.4 26.2 32 26.2c-1.4 0-2.8-0.4-3.9-1.3-0.3-0.3-0.6-0.6-0.9-1-0.3 0.4-0.5 0.7-0.9 1-1.1 0.9-2.5 1.3-3.8 1.3-1.4 0-2.8-0.4-3.8-1.3-0.3-0.3-0.6-0.6-0.9-1zM23.1 27.9c2.3 0 3.3 0.6 4.5 3l8.9 0c0.5-2.4 1.5-3 4.5-3 2.3 0 6.2 2.2 6.8 5.3l3 11.7c0.6 3-1.1 5.2-4.1 5.2-2.1 0-4.8-1.4-6.6-5.2l-16 0c-1.8 3.9-4.5 5.2-6.6 5.2-3 0-4.7-2.2-4.1-5.2l3-11.7c0.6-3.1 4.5-5.3 6.8-5.3zM32 32l-7.1 7.5 3 0 0 3.8 8.3 0 0-3.7 3 0z" fill="#000"/></svg>
