<svg xmlns="http://www.w3.org/2000/svg" version="1.1" width="64" height="64" viewBox="1,1,62,62" color="#000">
<path d="m 14,10.625 -6,7.5 0,2.11821 c 0,6 9.75,6 9.75,0 0,6 9.375,6 9.375,0 0,6 9.75,6 9.75,0 0,6 9.375,6 9.375,0 0,6 9.75,6 9.75,0 l 0,-2.11821 -6,-7.5 -7.125,0 -7.125,0 -7.5,0 -7.125,0 z m 3.738281,13.195312 c -0.266816,0.384332 -0.564086,0.744091 -0.914062,1.03125 -1.111508,0.912007 -2.538162,1.335938 -3.949219,1.335938 -0.376131,0 -0.752917,-0.03229 -1.125,-0.09375 l 0,27.28125 40.5,0 0,-27.28125 c -0.372083,0.06146 -0.748867,0.09375 -1.125,0.09375 -1.411057,0 -2.837711,-0.423931 -3.949219,-1.335938 -0.349575,-0.286831 -0.635726,-0.647462 -0.902344,-1.03125 -0.254996,0.379431 -0.543727,0.733512 -0.878906,1.019532 -1.074536,0.916937 -2.460157,1.347656 -3.832031,1.347656 -1.371874,0 -2.757495,-0.430719 -3.832031,-1.347656 -0.334819,-0.285712 -0.612368,-0.640603 -0.867188,-1.019532 -0.266816,0.384332 -0.564086,0.744091 -0.914062,1.03125 C 34.837711,25.763569 33.411058,26.1875 32,26.1875 c -1.411057,0 -2.837711,-0.423931 -3.949219,-1.335938 -0.349575,-0.286831 -0.635726,-0.647462 -0.902344,-1.03125 -0.254996,0.379431 -0.543727,0.733512 -0.878906,1.019532 -1.074536,0.916937 -2.460157,1.347656 -3.832031,1.347656 -1.371874,0 -2.757495,-0.430719 -3.832031,-1.347656 -0.334819,-0.285712 -0.612368,-0.640603 -0.867188,-1.019532 z M 23.117188,27.875 c 2.2875,-0.0375 3.299999,0.6375 4.499999,3 l 8.882813,0 c 0.45,-2.3625 1.4625,-3.0375 4.5,-3 2.2875,0.0375 6.1875,2.245312 6.75,5.320312 l 3,11.707032 c 0.5625,3 -1.0875,5.214843 -4.125,5.214843 -2.1,0 -4.7625,-1.352343 -6.5625,-5.214843 l -16.007813,0 c -1.799999,3.8625 -4.462499,5.214843 -6.5625,5.214843 -3.0375,0 -4.6875,-2.214843 -4.125,-5.214843 l 3,-11.707032 c 0.5625,-3.075 4.4625,-5.282812 6.750001,-5.320312 z M 32,32 l -7.125,7.5 3,0 0,3.75 8.25,0 0,-3.75 3,0 z" fill="#000"/>
</svg>
