<svg xmlns="http://www.w3.org/2000/svg" version="1.1" width="64" height="64" viewBox="-2,0,64,64" color="#8398b4"><path d="m18 56 0-1-2-2-1-3 0-2 2 0 0 1 1 0 0 1 2 0 0 2 1 0 0 1 2 0 0 1 8 0 0 2zm0-7-2-2 0-6-2-2-1 0-1-1-1-2-1-4 0-2 2-2 2-4 2-8 20 0 2 3 1 2 0 5 2 7 1 2 0 1-1 1-1 2-2 1-1 3-2 4-2 2z" fill="#ecc0a5"/><path d="m34 33 0-1-1 0 0 1zm-13-1 1 0 0-1-1 0z" fill="#4899cd"/><path d="m21 50 0-5 1 0 0-3 11 0 0 8-1 2-2 1-6 0 0-1-2 0z" fill="#c88e69"/><path d="m12 50 0 1-1 0 0 1-3 0 0 4 10 0 0-1-1 0 0-1-1 0 0-1-1 0 0-3-1 0 0-1-1 0 0 1zm23-2 0 2-1 0 0 2-1 0 0 1-1 0 0 2-1 0 0 1 19 0 0-3-1 0 0-1-1 0 0-1-1 0 0-1-1 0 0-1-3 0 0-1z" fill="#fff"/><path d="m36 33 0-1-4 0 0-1 5 0 0 2zm-18-1 0-2 6 0 0 1-4 0 0 1z" fill="#6a3718"/><path d="m15 15 0.5 7-2.5 0 0-5.5 1-1.5 3-3 4-4 3 0 0 4 2 0 1 1 8 0 3 1 2 3 1 1.5 0 7.5-1 0 0-8-3 0-1-1 0-2z" fill="#6d482b"/><path d="m15 47 0-3-1 0 0-1 1 0 0-1 0-1-0.5 0-0.5 0 0-2.5 0-2.5-1 0 0-5-1 0 0-2-1 0 0 1-1 0 0 2 1 0 0-1 1 0 0 1-1 0 0 4 1 0 0 2 1 0 0 1-1 0 0-1-1 0 0-1-1 0 0-4-1 0 0-4 1 0 0-1 2 0 0-5-1 0 0-6 1 0 0-4 1 0 0-1 1 0 0-1 2 0 0-1 2 0 0-1 2 0 0-1 1 0 0 1 1 0 0-1 8 0 0 1 4 0 0 1 3 0 0 1 1 0 0 1 1 0 0 1 1 0 0 2 1 0 0 2 1 0 0 2 1 0 0 6-1 0 0 3-1 0 0 5 1 0 0 2-1 0 0-1-2 0 0 5 1 0 0-3 2 0 0 1-1 0 0 2-1 0 0 2-1 0 0-1-1 0 0 4-1 0 0 3-1 0 0 1-1 0 0 2-1 0 0 2-1 0 0 1-2 0 0 1-8 0 0-1-2 0 0-1-1 0 0-2-2 0 0-1-1 0 0-1-1 0 0-1zm15 6 0-4 1 0 0 3 1 0 0-2 1 0 0-2 1 0 0-2 1 0 0-1-1 0 0-1 2 0 0-1 1 0 0-1-1 0 0-1 1 0 0-2 1 0 0-5 1 0 0-3-1 0 0-2 1 0 0-2-1 0 0-1 1 0 0-2-1 0 0-2 1 0 0-1-1 0 0-2-1 0 0-1 1 0 0-1-1 0 0-1-1 0 0 1 1 0 0 1-2 0 0-1-7 0 0-1-10 0 0 1-1 0 0 1-1 0 0 2 1 0 0-1 1 0 0-1 1 0 0 1 1 0 0-1 1 0 0 1-1 0 0 1-1 0 0-1-1 0 0 1-1 0 0 1-1 0 0 3 1 0 0 1-1 0 0 1-1 0 0-1 1 0 0-1-2 0 0 2 1 0 0 1.5 0 1.5-1 0 0 3 1 0 0 3 1 0 0 1-1 0 0 1 1 0 0 1-1 0 0 1 1 0 0 3 1 0 0 1-1 0 0 2 1 0 0 1-1 0 0 1 2 0 0 2 1 0 0-3-1 0 0-4 1 0 0 3 1 0 0 2 0 2 1 0 0 1 1 0 0 2 2 0 0 1zm-7-2 0-2 1 0 0 2zm6-1-1 0 0-1 1 0zm-3-1-1 0 0-1 1 0zm-3-1-1 0 0-1 1 0zm4 0 0-2 1 0 0 2zm3-2 0-1-8 0 0-0.5 0-0.5 11 0 0 1-1 0 0 1-2 0zm-5-4 0-2 1 0 0-1 1 0 0 1-1 0 0 2-1 0zm3 0-1 0 0-1 1 0zm2 0-1 0 0-1 0-1 2 0 0-1-1 0 0-1 1 0 0-1-1 0 0-1-1 0 0-1 1 0 0-1-1 0 0-4 1 0 0 3 1 0 0 4 1 0 0 3-1 0 0 1 0 1zm-4-4-1 0 0 1-1 0 0-2 1 0 0-1-1 0 0-1 1 0 0 1 1 0 0-1 1 0 0 2-1 0zm3 0-1 0 0-1 1 0zm-3-4-1 0 0-1 1 0 0-2 1 0 0 2-1 0zm-1-2-1 0 0-1 1 0zm-10-1 0-2 1 0 0-2 3 0 0-1 1 0 0 1 4 0 0 1 2 0 0 1-5 0 0-1-3 0 0 1-2 0 0 2zm16-1 0-2 7 0 0 1-3 0 0 1zm5-8 0-2-1 0 0-1 1 0 0 1 1 0 0 2zm5 4 0-2-1 0 0 2zm0-3 0-4-1 0 0 4zm-27-1 0-1 1 0 0-1-2 0 0 2zm0-3 1 0 0-1-1 0 0-1 1 0 0-2-1 0 0 2-1 0 0 1 1 0zm25-1 1 0 0-1-1 0zm-22-3 0-1 1 0 0-2-1 0 0 2-1 0 0 1zm19 0 0-1-1 0 0-1-2 0 0 1-1 0 0-1-1 0 0 1-1 0 0-1-4 0 0-1-1 0 0 1-1 0 0-1-1 0 0 2 6 0 0 1zm1 0 1 0 0-1-1 0zm-15-1 0-2-3 0 0 1 2 0 0 1zm1-4 1 0 0-1-1 0zm7 9 0 1 1 0 0-1zm-4 0 0 1 1 0 0-1zm-4 1 0 1 1 0 0-1zm10 0 0 1 1 0 0-1zm-14 1 0 1 1 0 0-1zm2 0 0 1 1 0 0-1zm9 1 0 1 1 0 0-1zm-9 1 0 1 1 0 0-1zm14 0 0 1 1 0 0-1zm2 0 0 1 1 0 0-1zm-10 0 0 1 1 0 0-1zm5 0 0 1 1 0 0-1zm4 2 0 1 1 0 0-1zm-17 11 0 1 1 0 0-1zm16 1 0 1 1 0 0-1zm-15 1 0 1 1 0 0-1zm15 1 0 1 1 0 0-1zm-14 1 0 1 1 0 0-1zm-3 0 0 1 1 0 0-1zm6 1 0 1-1 0 0 1 1 0 0-1 1 0 0-1zm11 1 0 1 1 0 0-1zm-1 0-1 0 0 1 1 0zm-18 5-1 0 0 1-1 0 0 1-1 0 0 1-1 0 0 1-3 0 0 1 3 0 0-1 1 0 0-1 1 0 0-1 1 0 0 1 1 0 0 3 1 0 0 1 1 0 0 1 1 0 0 1 1 0 0-1-1 0 0-2-2 0 0-4-1 0 0-1 1 0 0-1zm21 0 0 1 7 0 0 1 3 0 0 1 1 0 0 1 1 0 0-1-1 0 0-1-1 0 0-1-3 0 0-1zm12 4 0 1 1 0 0 1 1 0 0 3 1 0 0-3-1 0 0-1-1 0 0-1zm-17 2 0 2 1 0 0-2zm0 2 0 0 0 0zm0 0-1 0 0 1 1 0zm-5 0 0 1 1 0 0-1zm-6 0 0 1 1 0 0-1zm4 0-1 0 0 1 1 0zm4 0 0 1 1 0 0-1z"/></svg>
