<svg xmlns="http://www.w3.org/2000/svg" version="1.1" width="64" height="64" viewBox="-2,0,65,65" color="#ff5900">
<path d="M 8.0079116,31.25212 C 7.9778526,20.07952 17.094128,9.58522 29.109433,8.14046 c 8.597698,-0.98377 15.064703,2.31892 19.573468,6.60726 4.230172,3.9778 6.730459,9.0609 7.255105,15.0828 0.524646,6.0219 -0.784452,11.2458 -4.303263,16.0901 -3.518811,4.8444 -10.38562,10.0882 -18.990139,10.0983 l -11.675398,0 0,-23.0632 c 0.120241,-5.1421 1.790367,-9.4828 7.959934,-11.5914 5.415244,-1.5686 11.748934,1.3732 13.56435,7.0712 1.950418,6.1217 -0.907049,10.2083 -4.295483,12.741 -3.388434,2.5326 -8.666531,2.525 -12.183154,0.1187 l 0,7.8848 c 2.325744,1.0903 5.210519,1.4313 7.305231,1.2666 7.585491,-1.087 13.456028,-5.3583 16.004401,-11.9131 2.610713,-6.8749 0.768835,-14.898 -4.574057,-19.9242 -6.463928,-5.2692 -13.635633,-6.5566 -21.198447,-2.9192 -5.33787,2.7403 -9.034137,8.2067 -9.909495,14.2006 l 0,26.1282 -5.6345744,0 z" fill="#ff5900" />
</svg>
