<svg xmlns="http://www.w3.org/2000/svg" viewBox="0 0 64 64">
  <path fill="#d3505a"  d="M 12.281161,11.328346 C 9.6697244,11.494246 8.25,12.987357 8.25,15.640757 L 8.25,32 c 0,13.449624 10.63352,21.88248 23.75,21.88248 13.11648,0 23.75,-8.432856 23.75,-21.88248 l 0,-16.359243 c 0,-2.664 -1.435994,-4.162111 -4.062411,-4.312411 z M 21.75,24.125 c 0.239153,0.01593 0.45494,0.1112 0.625,0.28125 l 9.625,9.625 9.625,-9.625 c 1.360514,-1.3605 5.454313,2.702 4.09375,4.0625 L 32.857422,41.165993 c -0.406779,0.401589 -1.308065,0.401589 -1.714844,0 L 18.28125,28.46875 C 17.090774,27.278312 20.075931,24.013463 21.75,24.125 z" />
</svg>
