<?xml version="1.0" encoding="UTF-8" standalone="no"?>
<!-- Generator: Adobe Illustrator 13.0.1, SVG Export Plug-In . SVG Version: 6.00 Build 14948)  -->

<svg xmlns:dc="http://purl.org/dc/elements/1.1/" xmlns:cc="http://creativecommons.org/ns#" xmlns:rdf="http://www.w3.org/1999/02/22-rdf-syntax-ns#" xmlns:svg="http://www.w3.org/2000/svg" xmlns="http://www.w3.org/2000/svg" xmlns:sodipodi="http://sodipodi.sourceforge.net/DTD/sodipodi-0.dtd" xmlns:inkscape="http://www.inkscape.org/namespaces/inkscape" version="1.1" x="0px" y="0px" width="409.85089" height="352.03876" viewBox="0 0 409.85089 352.03876" enable-background="new 0 0 120 40" xml:space="preserve" id="svg21775" inkscape:version="0.48.4 r9939" sodipodi:docname="reddit-alien2.svg" inkscape:export-filename="/home/chromakode/Documents/code/reddit/reddit-about/reddit_about/public/static/about/assets/reddit-alien.png" inkscape:export-xdpi="184.19029" inkscape:export-ydpi="184.19029" style="stroke-width:13.84000015"><metadata id="metadata21839"><rdf:RDF><cc:Work rdf:about=""><dc:format>image/svg+xml</dc:format><dc:type rdf:resource="http://purl.org/dc/dcmitype/StillImage" /><dc:title /></cc:Work></rdf:RDF></metadata><defs id="defs21837" /><sodipodi:namedview pagecolor="#ffffff" bordercolor="#666666" borderopacity="1" objecttolerance="10" gridtolerance="10" guidetolerance="10" inkscape:pageopacity="0" inkscape:pageshadow="2" inkscape:window-width="1920" inkscape:window-height="1032" id="namedview21835" showgrid="false" inkscape:zoom="0.70710678" inkscape:cx="544.03616" inkscape:cy="208.93087" inkscape:window-x="0" inkscape:window-y="24" inkscape:window-maximized="1" inkscape:current-layer="svg21775" fit-margin-top="25" fit-margin-left="25" fit-margin-right="25" fit-margin-bottom="25" /><path inkscape:connector-curvature="0" d="m 258.14247,265.81615 c -13.42814,13.41555 -35.06167,15.99547 -53.21545,15.99547 -18.14121,0 -39.78732,-2.57992 -53.20288,-15.99547 M 299.20716,53.419962 231.1981,37.411907 204.79018,118.01121 231.1981,37.411907 m 122.56481,21.507678 c 0,14.804513 -12.00143,26.805942 -26.80594,26.805942 -14.80452,0 -26.80594,-12.001429 -26.80594,-26.805942 0,-14.804513 12.00142,-26.805943 26.80594,-26.805943 14.80451,0 26.80594,12.00143 26.80594,26.805943 z m 4.44248,160.621705 c 0,55.51344 -68.9547,100.51599 -154.01461,100.51599 -85.05992,0 -154.014603,-45.00255 -154.014603,-100.51599 0,-55.51344 68.954683,-100.51599 154.014603,-100.51599 85.05991,0 154.01461,45.00255 154.01461,100.51599 z M 52.193972,203.92386 c -11.977045,-5.26122 -20.341493,-17.22792 -20.341493,-31.14824 0,-18.78018 15.224352,-34.00453 34.004532,-34.00453 10.443645,0 19.787668,4.70808 26.02541,12.11758 m 225.538019,0.68764 c 6.23074,-7.80464 15.82599,-12.80522 26.58916,-12.80522 18.78018,0 34.00455,15.22435 34.00455,34.00454 l 0,0 c 0,14.44277 -9.0041,26.78252 -21.70507,31.71203" style="fill:#ffffff;fill-opacity:1;stroke:#000000;stroke-linecap:round;stroke-linejoin:miter;stroke-miterlimit:4;stroke-opacity:1;stroke-dasharray:none" id="path3957" /><path id="circle21828" style="fill:#ff4500;stroke:none" d="m 259.40207,174.84818 c -13.68691,0 -25.1875,11.46935 -25.1875,25.15626 0,13.68691 11.50059,24.78125 25.1875,24.78125 13.68693,0 24.78125,-11.09434 24.78125,-24.78125 0,-13.68691 -11.09432,-25.15626 -24.78125,-25.15626 z m -108.5625,0 c -13.67995,0 -25.15625,11.47631 -25.15625,25.15626 0,13.67995 11.4763,24.78125 25.15625,24.78125 13.67994,0 24.78125,-11.1013 24.78125,-24.78125 0,-13.67995 -11.10131,-25.15626 -24.78125,-25.15626 z" inkscape:connector-curvature="0" /></svg>