<svg xmlns="http://www.w3.org/2000/svg" version="1.1" width="64" height="64" viewBox="-10,-10,430,365" stroke-width="13.8" style="color:#f40"> <path d="m258.14 265.82c-13.43 13.42-35.06 16-53.22 16-18.14 0-39.79-2.58-53.2-16M299.21 53.42 231.2 37.41 204.79 118.01 231.2 37.41m122.56 21.51c0 14.8-12 26.81-26.81 26.81-14.8 0-26.81-12-26.81-26.81 0-14.8 12-26.81 26.81-26.81 14.8 0 26.81 12 26.81 26.81zm4.44 160.62c0 55.51-68.95 100.52-154.01 100.52-85.06 0-154.01-45-154.01-100.52 0-55.51 68.95-100.52 154.01-100.52 85.06 0 154.01 45 154.01 100.52zM52.19 203.92c-11.98-5.26-20.34-17.23-20.34-31.15 0-18.78 15.22-34 34-34 10.44 0 19.79 4.71 26.03 12.12m225.54 0.69c6.23-7.8 15.83-12.81 26.59-12.81 18.78 0 34 15.22 34 34l0 0c0 14.44-9 26.78-21.71 31.71" class="inverted" fill="#fff" stroke="#000" style="stroke-linecap:round;"/><path d="m259.4 174.85c-13.69 0-25.19 11.47-25.19 25.16 0 13.69 11.5 24.78 25.19 24.78 13.69 0 24.78-11.09 24.78-24.78 0-13.69-11.09-25.16-24.78-25.16zm-108.56 0c-13.68 0-25.16 11.48-25.16 25.16 0 13.68 11.48 24.78 25.16 24.78 13.68 0 24.78-11.1 24.78-24.78 0-13.68-11.1-25.16-24.78-25.16z" id="eyes" fill="#ff4500"/></svg>
