<svg xmlns="http://www.w3.org/2000/svg" version="1.1" width="64" height="64" viewBox="-40,-40,375,385" color="#ff6600"><path d="m91 248c0 18.2-14.8 33-33 33-18.2 0-33-14.8-33-33 0-18.2 14.8-33 33-33 18.2 0 33 14.8 33 33zM279.6 281C280.1 205.1 245 129.9 186.2 81.9 141.4 44.5 83.4 23.3 25 23.5c0 19.6 0 39.3 0 58.9 69.1-0.8 137.2 36.8 172.7 96.2 18.7 30.6 28.8 66.4 28.8 102.3 17.7 0 35.4 0 53.1 0zm-90 0C189.9 232.2 166.7 184.2 128.8 153.6 99.8 129.8 62.5 116.4 25 116.6c0 16.5 0 33.1 0 49.6 40.8-0.5 80.8 22.9 100.3 58.8 9.5 17.1 14.5 36.6 14.5 56.1 16.6 0 33.2 0 49.8 0z" fill="#ff6600"/></svg>
