<svg xmlns="http://www.w3.org/2000/svg" viewBox="2 -2 68 68" color="#444"><path d="m48.5 6c-5.2 0-9.5 4.3-9.5 9.5 0 0.6 0.1 1.2 0.2 1.8L22.5 25.6C20.8 23.7 18.3 22.5 15.5 22.5 10.3 22.5 6 26.8 6 32c0 5.2 4.3 9.5 9.5 9.5 2.8 0 5.3-1.2 7-3.1l16.7 8.3C39 47.3 39 47.9 39 48.5 39 53.7 43.3 58 48.5 58 53.7 58 58 53.7 58 48.5 58 43.3 53.7 39 48.5 39c-2.8 0-5.4 1.3-7.1 3.2l-16.6-8.2c0.3-1.3 0.2-2.6 0-3.8l16.6-8.3C43.2 23.8 45.7 25 48.5 25 53.7 25 58 20.7 58 15.5 58 10.3 53.7 6 48.5 6z" fill="#444"/></svg>
