<svg xmlns="http://www.w3.org/2000/svg" version="1.1" width="64" height="64" viewBox="2 2 60 60" color="#00aff0"><path d="M32.5 49.4C23.7 49.4 13.7 38.8 14.5 30c0.8-8.4 12-16.2 20.3-15 7.3 1 13.8 10.2 13.4 17.5-0.4 7.7-8 16.9-15.7 16.9zM38.8 53.9" class="inverted" fill="#fff"/><path d="m38.8 53.9c-0.6-0.2-1.5-0.4-2-0.6-0.6-0.3-1.3-0.3-3.5-0.2-2.1 0.1-3.2 0-4.7-0.2-8-1.4-14.4-7.2-16.7-15.2-0.4-1.5-0.5-2.3-0.5-5.9 0-3.9-0.1-4.2-0.6-5.8-2.9-7.9 3-16.2 11.4-16.2 1.7 0 3.8 0.5 5 1.1 0.8 0.4 1.3 0.5 4.4 0.5 2.8 0 3.9 0.1 5.3 0.5 6.3 1.6 11.4 5.7 14.1 11.4 1.7 3.5 2.3 7.1 1.9 11.2-0.2 2.2-0.2 2.4 0.3 3.7 1.6 4.7 0.1 10.1-3.8 13.3-1.2 1-3.6 2.1-5.1 2.5-1.5 0.3-3.9 0.3-5.4-0.1zm-2.7-7.7c3.3-0.7 6.2-2.7 7.3-5.1 1.4-2.9 1-6.3-0.9-8.4-1.6-1.8-4-2.8-9.7-4.2-3.8-0.9-4.7-1.3-5.5-2.2-0.7-0.8-0.8-1.4-0.2-2.3 0.6-1 2.1-1.6 4.1-1.7 2.9-0.2 4.2 0.5 5.9 3.2 1.3 2 2.6 2.5 4.3 1.7 2.2-1.1 2-4.7-0.4-6.8-2.3-1.9-4.8-2.7-9-2.7-4.4 0-7.4 0.9-9.4 2.9-1.6 1.6-1.9 2.5-1.9 5 0 2.6 0.3 3.4 2 4.9 1.8 1.7 3.3 2.3 8.7 3.6 3.8 0.9 4.8 1.4 5.7 2.4 0.4 0.5 0.6 0.9 0.6 1.8 0 1-0.1 1.2-0.9 2-1.2 1.2-3 1.7-5.3 1.6-2.7-0.2-3.9-1-5.3-3.8-1-1.9-1.8-2.6-3.1-2.6-2.9 0-3.9 2.4-2.4 5.5 1.3 2.7 3.9 4.5 7.2 5.2 2 0.4 6.4 0.4 8.3 0z" fill="#00aff0"/></svg>
