<svg xmlns="http://www.w3.org/2000/svg" version="1.1" width="64" height="64" viewBox="2,2,60,60" color="#00aff0">
<path d="M 32.497241,49.444594 C 23.680104,49.428222 13.716483,38.79443 14.546578,30.01644 c 0.79126,-8.367337 11.95745,-16.161901 20.279091,-14.983465 7.27832,1.030691 13.755121,10.171911 13.400594,17.514293 -0.371121,7.686079 -8.034002,16.911614 -15.729022,16.897326 z" class="inverted" fill="#fff" />
<path d="m 38.826667,53.86332 c -0.645334,-0.1584 -1.523838,-0.4357 -1.952231,-0.6163 -0.625623,-0.2638 -1.318297,-0.3036 -3.52,-0.2022 -2.055616,0.095 -3.239727,0.039 -4.73498,-0.2228 -8.01642,-1.4035 -14.440832,-7.2413 -16.699765,-15.1751 -0.419031,-1.4717 -0.489815,-2.2595 -0.526507,-5.8603 -0.04016,-3.9411 -0.073,-4.2441 -0.624244,-5.76 -2.8680638,-7.8867 2.985611,-16.22864 11.374894,-16.21013 1.696595,0.004 3.769416,0.45794 5.012849,1.09842 0.804448,0.41437 1.258611,0.4648 4.41665,0.49046 2.819062,0.0229 3.88109,0.11946 5.333334,0.48485 6.312121,1.5881 11.408121,5.7167 14.071573,11.4004 1.661067,3.5446 2.265547,7.1153 1.889722,11.1627 -0.202891,2.185 -0.185383,2.4422 0.254159,3.7333 1.607074,4.7208 0.06082,10.127 -3.803849,13.2995 -1.219121,1.0008 -3.591531,2.1432 -5.115439,2.4632 -1.48569,0.3119 -3.912128,0.2731 -5.376166,-0.086 z m -2.672788,-7.6791 c 3.284967,-0.6958 6.240043,-2.7455 7.332252,-5.0858 1.362912,-2.9203 0.990251,-6.2819 -0.933606,-8.4217 -1.612207,-1.7931 -3.996098,-2.8183 -9.710208,-4.1756 -3.849476,-0.9144 -4.719887,-1.2579 -5.532935,-2.184 -0.744424,-0.8478 -0.801525,-1.4141 -0.236098,-2.3413 0.596915,-0.9789 2.117323,-1.6321 4.058174,-1.7435 2.925579,-0.1678 4.194778,0.5223 5.925075,3.2217 1.282223,2.0004 2.570251,2.5162 4.269745,1.7097 2.242639,-1.0642 2.008739,-4.6967 -0.438442,-6.8091 -2.258492,-1.9495 -4.820585,-2.7277 -8.994503,-2.732 -4.35822,0 -7.371861,0.938 -9.361452,2.9276 -1.628804,1.6288 -1.945214,2.4502 -1.945214,5.0498 0,2.6417 0.290487,3.3687 1.976172,4.9454 1.765816,1.6518 3.266759,2.2685 8.737549,3.5902 3.797419,0.9174 4.843473,1.35 5.68611,2.3514 0.444256,0.528 0.560169,0.8906 0.560169,1.7526 0,1.0046 -0.07046,1.1544 -0.930763,1.9787 -1.213193,1.1624 -3.039511,1.6976 -5.298462,1.5525 -2.68487,-0.1724 -3.853751,-1.0104 -5.307757,-3.8052 -0.981664,-1.8869 -1.778152,-2.5523 -3.05505,-2.5523 -2.875298,0 -3.908571,2.409 -2.360511,5.5034 1.326917,2.6524 3.920918,4.527 7.245876,5.2365 1.970475,0.4205 6.397346,0.437 8.313879,0.031 z" fill="#00aff0" />
</svg>
