<?xml version="1.0" encoding="UTF-8" standalone="no"?>
<!-- Created with Inkscape (http://www.inkscape.org/) -->

<svg xmlns:dc="http://purl.org/dc/elements/1.1/" xmlns:cc="http://creativecommons.org/ns#" xmlns:rdf="http://www.w3.org/1999/02/22-rdf-syntax-ns#" xmlns:svg="http://www.w3.org/2000/svg" xmlns="http://www.w3.org/2000/svg" xmlns:xlink="http://www.w3.org/1999/xlink" xmlns:sodipodi="http://sodipodi.sourceforge.net/DTD/sodipodi-0.dtd" xmlns:inkscape="http://www.inkscape.org/namespaces/inkscape" width="306" height="306" id="svg2" version="1.1" inkscape:version="0.48.4 r9939" sodipodi:docname="soundcloud.svg">
  <path style="fill:url(#linearGradient3837);fill-opacity:1" d="m 76.739239,207.82818 c -0.38346,-0.38346 -0.6972,-1.25368 -0.6972,-1.93382 0,-0.68015 -0.4182,-6.80523 -0.92933,-13.61129 l -0.92933,-12.37467 1.02073,-21.91066 c 1.04026,-22.32995 1.13556,-23.12227 2.78136,-23.12227 0.30196,0 0.88378,0.24957 1.29294,0.5546 0.64779,0.48292 0.89818,3.34443 1.93755,22.14288 l 1.19363,21.58828 -1.19493,14.09129 c -0.66067,7.79099 -1.41415,14.35544 -1.68524,14.68208 -0.65961,0.79477 -1.93773,0.74603 -2.79018,-0.10642 z m 10.21909,-0.30106 c -0.46244,-0.72165 -0.8966,-4.87096 -1.56679,-14.974 -0.79774,-12.02593 -0.86806,-15.43036 -0.50396,-24.40208 0.23272,-5.73449 0.64348,-17.01491 0.91282,-25.06759 0.26933,-8.05269 0.57976,-15.24212 0.68985,-15.97653 0.3864,-2.5777 3.3922,-2.98441 3.97267,-0.53753 0.12857,0.542 0.72215,12.61947 1.31906,26.83881 l 1.08529,25.85336 -1.08827,13.4118 c -0.59854,7.3765 -1.08994,13.64713 -1.09199,13.93472 -0.006,0.80836 -1.30341,1.91731 -2.24356,1.91731 -0.46498,0 -1.13329,-0.44922 -1.48512,-0.99827 z m 10.43661,0.16746 c -0.69643,-0.69643 -0.88111,-1.82671 -1.14178,-6.98787 -0.17103,-3.38638 -0.49279,-8.45307 -0.71502,-11.25931 -0.5644,-7.12688 -0.50803,-16.32664 0.23378,-38.15598 0.35243,-10.37089 0.67596,-20.94899 0.71897,-23.50689 0.0893,-5.30963 0.50019,-6.91231 1.86374,-7.26889 1.687201,-0.44121 2.973561,0.82113 3.001501,2.94545 0.0136,1.03146 0.47225,13.97753 1.01929,28.76904 l 0.99462,26.89365 -0.99788,13.4807 c -0.54883,7.41439 -1.00751,13.71601 -1.01929,14.0036 -0.0337,0.82246 -1.33074,1.91731 -2.271461,1.91731 -0.47061,0 -1.22952,-0.37387 -1.68647,-0.83081 z m 10.389201,-0.0351 c -0.51699,-0.57126 -0.84583,-1.8168 -0.96639,-3.66031 -1.49161,-22.80831 -1.51907,-24.37977 -0.8426,-48.22226 0.93088,-32.80907 1.08768,-35.88656 1.86817,-36.66705 0.83407,-0.83407 2.98343,-0.83937 3.67254,-0.009 0.3716,0.44775 0.71946,6.23865 1.15267,19.18891 1.21592,36.34798 1.26646,42.11698 0.4734,54.04157 -0.9002,13.53565 -1.03876,14.67618 -1.88587,15.52329 -0.929,0.92899 -2.53637,0.83867 -3.47192,-0.1951 z m 10.42423,-0.10509 c -0.49755,-0.53407 -0.90463,-1.56225 -0.90463,-2.28488 0,-0.72262 -0.32003,-6.72449 -0.71117,-13.33748 -0.65747,-11.11585 -0.65409,-14.21769 0.0448,-41.08429 0.81215,-31.2214 0.76125,-30.71744 3.14814,-31.17372 2.02825,-0.38772 3.28281,1.29301 3.30086,4.42219 0.008,1.41421 0.20155,8.66072 0.42976,16.10335 0.22821,7.44264 0.53723,18.72305 0.68671,25.06759 0.14947,6.34454 0.34397,11.77168 0.43221,12.0603 0.0882,0.28862 -0.22453,6.5777 -0.69506,13.97573 -0.47052,7.39804 -0.8584,13.89242 -0.86197,14.43196 -0.008,1.24712 -1.64345,2.79025 -2.95675,2.79025 -0.55453,0 -1.41532,-0.43696 -1.91287,-0.97101 z m 10.68205,0.13481 c -0.92815,-0.92816 -1.03941,-1.99487 -1.87955,-18.01997 -0.48527,-9.25626 -0.3822,-19.13208 0.53012,-50.79045 0.49033,-17.01501 0.54613,-17.31353 3.23628,-17.31353 0.89603,0 1.77975,0.338 2.25408,0.86213 0.85297,0.94252 0.90851,1.6248 1.32027,16.21932 0.13081,4.6364 0.4535,15.81699 0.71709,24.84576 0.42842,14.67503 0.38934,17.84723 -0.36848,29.91233 -0.81492,12.97407 -0.88654,13.52781 -1.85064,14.30849 -1.2904,1.04491 -2.89997,1.03511 -3.95917,-0.0241 z m 10.63658,-0.0116 c -0.57834,-0.57834 -0.93,-1.74173 -1.10642,-3.66031 -0.70832,-7.7032 -1.18981,-26.81324 -0.95957,-38.08461 0.14207,-6.9546 0.35743,-17.73588 0.47859,-23.95841 0.49269,-25.30464 0.70684,-29.32884 1.60875,-30.23075 1.06059,-1.06058 3.25378,-1.06115 4.31381,-0.001 1.06656,1.06656 1.20259,4.31303 2.22409,53.0811 0.30829,14.71828 -0.70101,40.46988 -1.6561,42.2545 -0.88618,1.65584 -3.5243,1.97846 -4.90315,0.5996 z m 10.90679,-0.0588 c -0.65411,-0.51452 -1.25114,-1.52182 -1.38059,-2.32928 -0.12544,-0.78249 -0.52685,-7.31249 -0.89202,-14.5111 -0.52278,-10.30553 -0.57816,-16.48443 -0.26049,-29.06066 0.2219,-8.78475 0.52129,-23.35944 0.66531,-32.38821 0.32878,-20.61163 0.4718,-22.61857 1.69299,-23.75628 1.28619,-1.19826 3.23022,-1.10379 4.55538,0.22138 1.029,1.029 1.09285,1.38968 1.15847,6.54419 0.0382,3.00035 0.1109,5.95431 0.16157,6.56436 0.0507,0.61005 0.24157,9.09532 0.4242,18.85616 0.18264,9.76083 0.40872,17.87652 0.5024,18.03487 0.46374,0.78382 0.10247,29.80225 -0.48249,38.75542 -0.36669,5.61248 -0.66861,10.56297 -0.67092,11.0011 -0.006,1.14992 -2.00079,2.97464 -3.25177,2.97464 -0.58823,0 -1.58815,-0.40796 -2.22204,-0.90659 z m 9.67588,-0.1709 -1.10056,-1.10056 0,-51.67601 0,-51.676 1.16817,-0.91888 c 1.43992,-1.13265 6.73771,-2.837021 11.97612,-3.852891 5.73293,-1.11177 15.02117,-1.01114 20.9309,0.22677 23.5969,4.942841 40.38073,23.000861 44.22526,47.582751 l 0.25315,1.61862 3.87051,-1.08742 c 3.34976,-0.94111 4.52716,-1.06015 8.75093,-0.88476 6.07228,0.25215 6.43578,0.31578 10.35076,1.81177 17.62989,6.73676 25.57434,27.01628 17.14263,43.75941 -3.92233,7.78872 -9.49206,12.68234 -18.03889,15.84916 l -3.24306,1.20163 -47.59268,0.12348 -47.59268,0.12349 z m -93.774101,-0.36445 c -0.20205,-0.54905 -0.82372,-7.1007 -1.38151,-14.55922 -0.98728,-13.20148 -0.99513,-13.78951 -0.2964,-22.18371 0.39476,-4.74252 0.84478,-10.51947 1.00003,-12.83766 0.28139,-4.20144 0.97139,-6.21144 2.13228,-6.21144 1.43392,0 1.764,1.58065 2.99281,14.33189 l 1.24836,12.95407 -1.17282,13.7539 c -0.64505,7.56464 -1.33489,14.20312 -1.53296,14.75217 -0.24534,0.68003 -0.72074,0.99826 -1.49129,0.99826 -0.76842,0 -1.24895,-0.32012 -1.4985,-0.99826 z m -9.98895,0.18871 c -0.12437,-0.20124 -0.75436,-6.58569 -1.39997,-14.18767 l -1.17384,-13.82178 1.16638,-14.29034 c 0.64151,-7.85968 1.38399,-14.55253 1.64995,-14.87299 0.60952,-0.73443 1.46332,-0.74611 2.05181,-0.0281 0.25,0.30502 1.05084,6.9435 1.77965,14.75216 l 1.32512,14.19758 -1.28328,13.7539 c -0.70581,7.56464 -1.37611,14.00346 -1.48956,14.30849 -0.22925,0.61633 -2.27129,0.76306 -2.62626,0.18871 z m -9.87026,-1.06441 c -0.18456,-0.29862 -0.88179,-6.43796 -1.54941,-13.64298 l -1.21386,-13.10004 1.07419,-12.42288 c 0.59081,-6.83258 1.19041,-13.28303 1.33245,-14.33434 0.26841,-1.98659 1.18883,-2.81924 2.10436,-1.90371 0.30198,0.30198 1.09728,6.19396 1.90937,14.14557 l 1.39181,13.62801 -1.28619,13.08839 c -0.70741,7.19861 -1.47594,13.53761 -1.70784,14.08665 -0.45854,1.08561 -1.51999,1.32081 -2.05488,0.45533 z m -10.08301,-4.22656 c -0.12182,-0.42703 -0.76275,-5.86759 -1.42429,-12.09012 l -1.20279,-11.31369 1.30675,-11.53553 c 1.24261,-10.96926 1.35337,-11.54232 2.25646,-11.67399 1.14947,-0.16759 1.03655,-0.70952 2.75596,13.22685 l 1.28636,10.42634 -1.31828,10.87002 c -0.72505,5.97851 -1.50506,11.31924 -1.73335,11.86829 -0.49357,1.18701 -1.61467,1.31608 -1.92682,0.22183 z m -9.32453,-8.42981 c -0.12587,-0.42703 -0.65584,-3.82362 -1.17771,-7.54797 l -0.94886,-6.77154 0.97415,-7.2042 c 0.53579,-3.9623 1.18489,-7.46378 1.44246,-7.78105 0.98187,-1.20947 1.65076,0.68557 2.74379,7.77353 l 1.10761,7.18252 -1.12845,7.22193 c -0.62065,3.97206 -1.3647,7.37217 -1.65344,7.55578 -0.80617,0.51266 -1.11028,0.41669 -1.35955,-0.429 z" id="path3031" inkscape:connector-curvature="0" sodipodi:nodetypes="ssscsssscsssssssscscscsssssssscscscsscssscssscccsssscsscscscccsssssssscccsssscsscccssssssscscscscccccsssscsssssccccsssssscscsscscsssscscccsscsssscssssscssscscssscssscscs" />
  <defs id="defs4">
    <linearGradient id="bg" gradientUnits="userSpaceOnUse">
      <stop style="stop-color:#f69510;stop-opacity:1;" offset="0" id="stop3803" />
      <stop style="stop-color:#fa490c;stop-opacity:1;" offset="1" id="stop3805" />
    </linearGradient>
    <filter inkscape:collect="always" id="filter3832">
      <feGaussianBlur inkscape:collect="always" stdDeviation="0.18360621" id="feGaussianBlur3834" />
    </filter>
    <linearGradient inkscape:collect="always" xlink:href="#bg" id="linearGradient3837" gradientUnits="userSpaceOnUse" x1="532.84784" y1="821.7489" x2="528.26147" y2="1068.6699" gradientTransform="translate(-372.21429,-765.57648)" />
  </defs>
  <sodipodi:namedview id="base" pagecolor="#ffffff" bordercolor="#666666" borderopacity="1.0" inkscape:pageopacity="0.0" inkscape:pageshadow="2" inkscape:zoom="1.979899" inkscape:cx="120.81332" inkscape:cy="155.35633" inkscape:document-units="px" inkscape:current-layer="svg2" showgrid="false" fit-margin-top="25" fit-margin-left="25" fit-margin-right="25" fit-margin-bottom="25" inkscape:window-width="1920" inkscape:window-height="1032" inkscape:window-x="0" inkscape:window-y="24" inkscape:window-maximized="1" />
  <metadata id="metadata7">
    <rdf:RDF>
      <cc:Work rdf:about="">
        <dc:format>image/svg+xml</dc:format>
        <dc:type rdf:resource="http://purl.org/dc/dcmitype/StillImage" />
        <dc:title></dc:title>
      </cc:Work>
    </rdf:RDF>
  </metadata>
  <g inkscape:label="Layer 1" inkscape:groupmode="layer" id="layer1" />
</svg>
