<?xml version="1.0" encoding="UTF-8" standalone="no"?>
<svg xmlns:svg="http://www.w3.org/2000/svg" xmlns="http://www.w3.org/2000/svg" xmlns:sodipodi="http://sodipodi.sourceforge.net/DTD/sodipodi-0.dtd" xmlns:inkscape="http://www.inkscape.org/namespaces/inkscape" width="306" height="306" id="svg2" version="1.1" inkscape:version="0.48.4 r9939" sodipodi:docname="soundcloud-opti.svg">
  <sodipodi:namedview pagecolor="#ffffff" bordercolor="#666666" borderopacity="1" objecttolerance="10" gridtolerance="10" guidetolerance="10" inkscape:pageopacity="0" inkscape:pageshadow="2" inkscape:window-width="1920" inkscape:window-height="1032" id="namedview3882" showgrid="false" inkscape:zoom="2.1814013" inkscape:cx="153" inkscape:cy="153" inkscape:window-x="0" inkscape:window-y="24" inkscape:window-maximized="1" inkscape:current-layer="svg2" />
  <path d="m 76.7,207.8 c -0.4,-0.4 -0.7,-1.3 -0.7,-1.9 0,-0.7 -0.4,-6.8 -0.9,-13.6 l -0.9,-12.4 1,-21.9 c 1,-22.3 1.1,-23.1 2.8,-23.1 0.3,0 0.9,0.2 1.3,0.6 0.6,0.5 0.9,3.3 1.9,22.1 l 1.2,21.6 -1.2,14.1 c -0.7,7.8 -1.4,14.4 -1.7,14.7 -0.7,0.8 -1.9,0.7 -2.8,-0.1 z m 10.2,-0.3 c -0.5,-0.7 -0.9,-4.9 -1.6,-15 -0.8,-12 -0.9,-15.4 -0.5,-24.4 0.2,-5.7 0.6,-17 0.9,-25.1 0.3,-8.1 0.6,-15.2 0.7,-16 0.4,-2.6 3.4,-3 4,-0.5 0.1,0.5 0.7,12.6 1.3,26.8 l 1.1,25.9 -1.1,13.4 c -0.6,7.4 -1.1,13.6 -1.1,13.9 0,0.8 -1.3,1.9 -2.2,1.9 -0.5,0 -1.1,-0.4 -1.5,-1 z m 10.4,0.2 c -0.7,-0.7 -0.9,-1.8 -1.1,-7 -0.2,-3.4 -0.5,-8.5 -0.7,-11.3 -0.6,-7.1 -0.5,-16.3 0.2,-38.2 0.4,-10.4 0.7,-20.9 0.7,-23.5 0.1,-5.3 0.5,-6.9 1.9,-7.3 1.7,-0.4 3,0.8 3,2.9 0,1 0.5,14 1,28.8 l 1,26.9 -1,13.5 c -0.5,7.4 -1,13.7 -1,14 0,0.8 -1.3,1.9 -2.3,1.9 -0.5,0 -1.2,-0.4 -1.7,-0.8 z m 10.4,0 c -0.5,-0.6 -0.8,-1.8 -1,-3.7 -1.5,-22.8 -1.5,-24.4 -0.8,-48.2 0.9,-32.8 1.1,-35.9 1.9,-36.7 0.8,-0.8 3,-0.8 3.7,0 0.4,0.4 0.7,6.2 1.2,19.2 1.2,36.3 1.3,42.1 0.5,54 -0.9,13.5 -1,14.7 -1.9,15.5 -0.9,0.9 -2.5,0.8 -3.5,-0.2 z m 10.4,-0.1 c -0.5,-0.5 -0.9,-1.6 -0.9,-2.3 0,-0.7 -0.3,-6.7 -0.7,-13.3 -0.7,-11.1 -0.7,-14.2 0,-41.1 0.8,-31.2 0.8,-30.7 3.1,-31.2 2,-0.4 3.3,1.3 3.3,4.4 0,1.4 0.2,8.7 0.4,16.1 0.2,7.4 0.5,18.7 0.7,25.1 0.1,6.3 0.3,11.8 0.4,12.1 0.1,0.3 -0.2,6.6 -0.7,14 -0.5,7.4 -0.9,13.9 -0.9,14.4 0,1.2 -1.6,2.8 -3,2.8 -0.6,0 -1.4,-0.4 -1.9,-1 z m 10.7,0.1 c -0.9,-0.9 -1,-2 -1.9,-18 -0.5,-9.3 -0.4,-19.1 0.5,-50.8 0.5,-17 0.5,-17.3 3.2,-17.3 0.9,0 1.8,0.3 2.3,0.9 0.9,0.9 0.9,1.6 1.3,16.2 0.1,4.6 0.5,15.8 0.7,24.8 0.4,14.7 0.4,17.8 -0.4,29.9 -0.8,13 -0.9,13.5 -1.9,14.3 -1.3,1 -2.9,1 -4,0 z m 10.6,0 c -0.6,-0.6 -0.9,-1.7 -1.1,-3.7 -0.7,-7.7 -1.2,-26.8 -1,-38.1 0.1,-7 0.4,-17.7 0.5,-24 0.5,-25.3 0.7,-29.3 1.6,-30.2 1.1,-1.1 3.3,-1.1 4.3,0 1.1,1.1 1.2,4.3 2.2,53.1 0.3,14.7 -0.7,40.5 -1.7,42.3 -0.9,1.7 -3.5,2 -4.9,0.6 z m 10.9,-0.1 c -0.7,-0.5 -1.3,-1.5 -1.4,-2.3 -0.1,-0.8 -0.5,-7.3 -0.9,-14.5 -0.5,-10.3 -0.6,-16.5 -0.3,-29.1 0.2,-8.8 0.5,-23.4 0.7,-32.4 0.3,-20.6 0.5,-22.6 1.7,-23.8 1.3,-1.2 3.2,-1.1 4.6,0.2 1,1 1.1,1.4 1.2,6.5 0,3 0.1,6 0.2,6.6 0.1,0.6 0.2,9.1 0.4,18.9 0.2,9.8 0.4,17.9 0.5,18 0.5,0.8 0.1,29.8 -0.5,38.8 -0.4,5.6 -0.7,10.6 -0.7,11 0,1.1 -2,3 -3.3,3 -0.6,0 -1.6,-0.4 -2.2,-0.9 z m 9.7,-0.2 -1.1,-1.1 0,-51.7 0,-51.7 1.2,-0.9 c 1.4,-1.1 6.7,-2.8 12,-3.9 5.7,-1.1 15,-1 20.9,0.2 23.6,4.9 40.4,23 44.2,47.6 l 0.3,1.6 3.9,-1.1 c 3.3,-0.9 4.5,-1.1 8.8,-0.9 6.1,0.3 6.4,0.3 10.4,1.8 17.6,6.7 25.6,27 17.1,43.8 -3.9,7.8 -9.5,12.7 -18,15.8 l -3.2,1.2 -47.6,0.1 -47.6,0.1 z M 66.2,207 c -0.2,-0.5 -0.8,-7.1 -1.4,-14.6 -1,-13.2 -1,-13.8 -0.3,-22.2 0.4,-4.7 0.8,-10.5 1,-12.8 0.3,-4.2 1,-6.2 2.1,-6.2 1.4,0 1.8,1.6 3,14.3 l 1.2,13 -1.2,13.8 c -0.6,7.6 -1.3,14.2 -1.5,14.8 -0.2,0.7 -0.7,1 -1.5,1 -0.8,0 -1.2,-0.3 -1.5,-1 z m -10,0.2 C 56.1,207 55.4,200.6 54.8,193 l -1.2,-13.8 1.2,-14.3 c 0.6,-7.9 1.4,-14.6 1.6,-14.9 0.6,-0.7 1.5,-0.7 2.1,0 0.3,0.3 1.1,6.9 1.8,14.8 l 1.3,14.2 -1.3,13.8 c -0.7,7.6 -1.4,14 -1.5,14.3 -0.2,0.6 -2.3,0.8 -2.6,0.2 z m -9.9,-1.1 c -0.2,-0.3 -0.9,-6.4 -1.5,-13.6 L 43.6,179.4 44.7,167 c 0.6,-6.8 1.2,-13.3 1.3,-14.3 0.3,-2 1.2,-2.8 2.1,-1.9 0.3,0.3 1.1,6.2 1.9,14.1 l 1.4,13.6 -1.3,13.1 c -0.7,7.2 -1.5,13.5 -1.7,14.1 -0.5,1.1 -1.5,1.3 -2.1,0.5 z M 36.2,201.9 C 36.1,201.5 35.4,196 34.8,189.8 L 33.6,178.5 34.9,167 c 1.2,-11 1.4,-11.5 2.3,-11.7 1.1,-0.2 1,-0.7 2.8,13.2 l 1.3,10.4 -1.3,10.9 c -0.7,6 -1.5,11.3 -1.7,11.9 -0.5,1.2 -1.6,1.3 -1.9,0.2 z m -9.3,-8.4 c -0.1,-0.4 -0.7,-3.8 -1.2,-7.5 l -0.9,-6.8 1,-7.2 c 0.5,-4 1.2,-7.5 1.4,-7.8 1,-1.2 1.7,0.7 2.7,7.8 l 1.1,7.2 -1.1,7.2 c -0.6,4 -1.4,7.4 -1.7,7.6 -0.8,0.5 -1.1,0.4 -1.4,-0.4 z" id="path3031" inkscape:connector-curvature="0" style="fill:url(#bg)" />
  <defs id="defs4">
    <linearGradient id="bg" gradientUnits="userSpaceOnUse" x1="153" x2="153" y1="25" y2="281">
      <stop offset="0" id="l" style="stop-color:#f69510;stop-opacity:1" />
      <stop offset="1" id="d" style="stop-color:#fa490c;stop-opacity:1" />
    </linearGradient>
  </defs>
</svg>
