<svg xmlns="http://www.w3.org/2000/svg" version="1.1" width="64" height="64" viewBox="0,5,310,300" style="color:#f50"><defs><linearGradient id="bg" gradientUnits="userSpaceOnUse" x1="153" x2="153" y1="100" y2="206"><stop offset="0" style="stop-color:#ff8800"/><stop offset="1" style="stop-color:#ff3300"/></linearGradient></defs><path d="m76.7 207.8c-0.4-0.4-0.7-1.3-0.7-1.9 0-0.7-0.4-6.8-0.9-13.6l-0.9-12.4 1-21.9c1-22.3 1.1-23.1 2.8-23.1 0.3 0 0.9 0.2 1.3 0.6 0.6 0.5 0.9 3.3 1.9 22.1l1.2 21.6-1.2 14.1c-0.7 7.8-1.4 14.4-1.7 14.7-0.7 0.8-1.9 0.7-2.8-0.1zm10.2-0.3c-0.5-0.7-0.9-4.9-1.6-15-0.8-12-0.9-15.4-0.5-24.4 0.2-5.7 0.6-17 0.9-25.1 0.3-8.1 0.6-15.2 0.7-16 0.4-2.6 3.4-3 4-0.5 0.1 0.5 0.7 12.6 1.3 26.8l1.1 25.9-1.1 13.4c-0.6 7.4-1.1 13.6-1.1 13.9 0 0.8-1.3 1.9-2.2 1.9-0.5 0-1.1-0.4-1.5-1zm10.4 0.2c-0.7-0.7-0.9-1.8-1.1-7-0.2-3.4-0.5-8.5-0.7-11.3-0.6-7.1-0.5-16.3 0.2-38.2 0.4-10.4 0.7-20.9 0.7-23.5 0.1-5.3 0.5-6.9 1.9-7.3 1.7-0.4 3 0.8 3 2.9 0 1 0.5 14 1 28.8l1 26.9-1 13.5c-0.5 7.4-1 13.7-1 14 0 0.8-1.3 1.9-2.3 1.9-0.5 0-1.2-0.4-1.7-0.8zm10.4 0c-0.5-0.6-0.8-1.8-1-3.7-1.5-22.8-1.5-24.4-0.8-48.2 0.9-32.8 1.1-35.9 1.9-36.7 0.8-0.8 3-0.8 3.7 0 0.4 0.4 0.7 6.2 1.2 19.2 1.2 36.3 1.3 42.1 0.5 54-0.9 13.5-1 14.7-1.9 15.5-0.9 0.9-2.5 0.8-3.5-0.2zm10.4-0.1c-0.5-0.5-0.9-1.6-0.9-2.3 0-0.7-0.3-6.7-0.7-13.3-0.7-11.1-0.7-14.2 0-41.1 0.8-31.2 0.8-30.7 3.1-31.2 2-0.4 3.3 1.3 3.3 4.4 0 1.4 0.2 8.7 0.4 16.1 0.2 7.4 0.5 18.7 0.7 25.1 0.1 6.3 0.3 11.8 0.4 12.1 0.1 0.3-0.2 6.6-0.7 14-0.5 7.4-0.9 13.9-0.9 14.4 0 1.2-1.6 2.8-3 2.8-0.6 0-1.4-0.4-1.9-1zm10.7 0.1c-0.9-0.9-1-2-1.9-18-0.5-9.3-0.4-19.1 0.5-50.8 0.5-17 0.5-17.3 3.2-17.3 0.9 0 1.8 0.3 2.3 0.9 0.9 0.9 0.9 1.6 1.3 16.2 0.1 4.6 0.5 15.8 0.7 24.8 0.4 14.7 0.4 17.8-0.4 29.9-0.8 13-0.9 13.5-1.9 14.3-1.3 1-2.9 1-4 0zm10.6 0c-0.6-0.6-0.9-1.7-1.1-3.7-0.7-7.7-1.2-26.8-1-38.1 0.1-7 0.4-17.7 0.5-24 0.5-25.3 0.7-29.3 1.6-30.2 1.1-1.1 3.3-1.1 4.3 0 1.1 1.1 1.2 4.3 2.2 53.1 0.3 14.7-0.7 40.5-1.7 42.3-0.9 1.7-3.5 2-4.9 0.6zm10.9-0.1c-0.7-0.5-1.3-1.5-1.4-2.3-0.1-0.8-0.5-7.3-0.9-14.5-0.5-10.3-0.6-16.5-0.3-29.1 0.2-8.8 0.5-23.4 0.7-32.4 0.3-20.6 0.5-22.6 1.7-23.8 1.3-1.2 3.2-1.1 4.6 0.2 1 1 1.1 1.4 1.2 6.5 0 3 0.1 6 0.2 6.6 0.1 0.6 0.2 9.1 0.4 18.9 0.2 9.8 0.4 17.9 0.5 18 0.5 0.8 0.1 29.8-0.5 38.8-0.4 5.6-0.7 10.6-0.7 11 0 1.1-2 3-3.3 3-0.6 0-1.6-0.4-2.2-0.9zm9.7-0.2-1.1-1.1 0-51.7 0-51.7 1.2-0.9c1.4-1.1 6.7-2.8 12-3.9 5.7-1.1 15-1 20.9 0.2 23.6 4.9 40.4 23 44.2 47.6l0.3 1.6 3.9-1.1c3.3-0.9 4.5-1.1 8.8-0.9 6.1 0.3 6.4 0.3 10.4 1.8 17.6 6.7 25.6 27 17.1 43.8-3.9 7.8-9.5 12.7-18 15.8l-3.2 1.2-47.6 0.1-47.6 0.1zM66.2 207c-0.2-0.5-0.8-7.1-1.4-14.6-1-13.2-1-13.8-0.3-22.2 0.4-4.7 0.8-10.5 1-12.8 0.3-4.2 1-6.2 2.1-6.2 1.4 0 1.8 1.6 3 14.3l1.2 13-1.2 13.8c-0.6 7.6-1.3 14.2-1.5 14.8-0.2 0.7-0.7 1-1.5 1-0.8 0-1.2-0.3-1.5-1zm-10 0.2C56.1 207 55.4 200.6 54.8 193l-1.2-13.8 1.2-14.3c0.6-7.9 1.4-14.6 1.6-14.9 0.6-0.7 1.5-0.7 2.1 0 0.3 0.3 1.1 6.9 1.8 14.8l1.3 14.2-1.3 13.8c-0.7 7.6-1.4 14-1.5 14.3-0.2 0.6-2.3 0.8-2.6 0.2zm-9.9-1.1c-0.2-0.3-0.9-6.4-1.5-13.6L43.6 179.4 44.7 167c0.6-6.8 1.2-13.3 1.3-14.3 0.3-2 1.2-2.8 2.1-1.9 0.3 0.3 1.1 6.2 1.9 14.1l1.4 13.6-1.3 13.1c-0.7 7.2-1.5 13.5-1.7 14.1-0.5 1.1-1.5 1.3-2.1 0.5zM36.2 201.9C36.1 201.5 35.4 196 34.8 189.8L33.6 178.5 34.9 167c1.2-11 1.4-11.5 2.3-11.7 1.1-0.2 1-0.7 2.8 13.2l1.3 10.4-1.3 10.9c-0.7 6-1.5 11.3-1.7 11.9-0.5 1.2-1.6 1.3-1.9 0.2zm-9.3-8.4c-0.1-0.4-0.7-3.8-1.2-7.5l-0.9-6.8 1-7.2c0.5-4 1.2-7.5 1.4-7.8 1-1.2 1.7 0.7 2.7 7.8l1.1 7.2-1.1 7.2c-0.6 4-1.4 7.4-1.7 7.6-0.8 0.5-1.1 0.4-1.4-0.4z" fill="url(#bg) #ff5500"/></svg>
