<svg xmlns="http://www.w3.org/2000/svg" width="64" height="64" viewBox="-5 -5 76 76" color="#F37A20"><path fill="#919191" d="m9.3 36.8l4.4 0 -0.1 19.6 29.3 0 0-19.5 4.6 0 0 24.3 -38.2 0 0-24.4zM16.5 48.4 16.5 48.4"/><path fill="#919191" d="m16.5 48.4l22.9 0 0 4.9 -22.9 0 0-4.9z"/><path fill="#a78b68" d="m17 39.6l23 2.2 -0.5 5 -23-2.2 0.5-5z"/><path fill="#c19653" d="m19.1 29.7l22.2 6.3 -1.4 4.8 -22.2-6.3 1.4-4.8z"/><path fill="#d48c28" d="m24.5 18.5l19.7 11.9 -2.6 4.3 -19.7-11.9 2.6-4.3z"/><path fill="#fe8908" d="m35.7 7.8l13.4 18.8 -4.1 2.9 -13.4-18.8 4.1-2.9z"/><path fill="#ff7a15" d="m51.3 2.7l3.8 22.8 -4.9 0.8 -3.8-22.8 4.9-0.8z"/></svg>
