<svg xmlns="http://www.w3.org/2000/svg" viewBox="0 0 64 64" color="#F37A20"><path fill="#bcbbbc" d="m10.75 37.73 4.39 0-0.08 12.92 29.91 0 0-12.84 4.19 0 0 17.15-38.4 0zM38.51 6.96l12.72 17.25-3.51 2.59-12.72-17.25 3.51-2.59"/><path fill="#F37A20" d="m38.51 6.96 12.72 17.25-3.51 2.59-12.72-17.25 3.51-2.59zm-7.92 6.79 16.47 13.71-2.79 3.36-16.47-13.71 2.79-3.36zm-6.27 8.93 19.41 9.08-1.85 3.95-19.41-9.08 1.85-3.95zm-3.71 9.76 20.97 4.4-0.9 4.27-20.97-4.4 0.9-4.27zm-1.31 9.6 21.43 0 0 4.36-21.43 0 0-4.36z"/></svg>

