<svg xmlns="http://www.w3.org/2000/svg" version="1.1" width="64" height="64" viewBox="0,0,64,64">
<path fill="#919191" d="m9.3,36.849998l4.4,0.040001l-0.15,19.600002l29.29,0l0,-19.530003l4.639999,0l0,24.290001l-38.2,0l0.02,-24.400002z"/>
<path fill="#919191" d="m16.48,48.43l22.939999,0l0,4.880001l-22.939999,0l0,-4.880001z"/>
<path fill="#a78b68" d="m17.019827,39.648418l22.963301,2.216259l-0.480335,4.976871l-22.963299,-2.216255l0.480333,-4.976875z"/>
<path fill="#c19653" d="m19.118759,29.710165l22.202637,6.266413l-1.358128,4.812012l-22.202639,-6.266407l1.35813,-4.812017z"/>
<path fill="#d48c28" d="m24.504423,18.480713l19.747412,11.927469l-2.58506,4.27989l-19.747414,-11.927469l2.585062,-4.27989z"/>
<path fill="#fe8908" d="m35.735565,7.844481l13.436588,18.753211l-4.064415,2.912134l-13.436588,-18.753211l4.064415,-2.912135z"/>
<path fill="#ff7a15" d="m51.334732,2.747094l3.802162,22.754527l-4.931625,0.824049l-3.802162,-22.754527l4.931625,-0.824049z"/>
</svg>
