<svg xmlns="http://www.w3.org/2000/svg" viewBox="0,0,64,64">
<path d="m 17.064257,54.74802 c -0.211109,-0.1543 -0.228354,-0.3066 -0.146623,-1.2948 0.294545,-2.8178 0.788717,-5.6075 1.338397,-8.3778 -1.894366,-2.7544 -3.496162,-6.0652 -4.010303,-8.8754 -0.310815,-1.7776 -0.179478,-4.8867 0.280581,-6.6423 0.653719,-2.4946 2.095438,-5.2331 3.949715,-7.5025 2.862647,-2.9831 5.785157,-4.8353 9.340347,-5.9822 l 1.033028,-2.1365 c 1.866404,-3.86011 2.649591,-5.00319 3.42798,-5.00319 0.380772,0 0.530875,0.10263 0.978659,0.66912 0.509878,0.64504 2.530906,4.60167 3.009962,5.89277 0.205827,0.5547 0.305698,0.6548 0.850278,0.8521 3.580618,1.2975 5.718024,2.6392 7.916121,4.9693 0.964308,1.0222 2.487871,3.2035 3.140316,4.496 1.820265,3.6059 2.244336,7.8157 1.207549,11.9874 -0.552445,2.2228 -1.711882,4.6205 -3.157404,6.5293 -0.505926,0.668 -0.683626,1.0094 -0.632182,1.2143 0.133613,0.5324 0.473124,3.0491 0.663648,4.9196 0.205288,2.0153 0.147296,2.3842 -0.363347,2.3115 -1.366596,-1.6536 -1.689291,-3.0871 -3.020806,-5.1571 -6.185574,3.9799 -13.263092,4.4926 -19.647694,1.4046 -0.431225,-0.1777 -0.344551,-0.26 -2.713191,2.5778 -1.392759,1.6686 -2.651734,3.0175 -2.990869,3.2045 -0.138637,0.076 -0.299827,0.056 -0.454162,-0.056 z m 10.935744,-13.5128 c 2.745381,-2.4005 5.374399,-4.0058 7.466666,-4.5593 1.193449,-0.3157 1.861639,-0.081 2.968849,1.0444 2.267119,2.5617 4.936946,8.028787 5.955193,8.8681 -0.0011,-0.3994 -0.874425,-4.6827 -1.392289,-6.7884 -1.058893,-4.3056 -1.75009,-6.554 -3.689017,-12 -2.527271,-7.0986 -3.351997,-9.2552 -4.869437,-12.7334 -1.3874,-3.18 -2.082724,-4.39995 -2.507912,-4.39995 -0.624705,0 -2.059039,2.94965 -4.830345,9.93335 -0.968198,2.4398 -3.394999,9.1732 -4.012592,11.1333 -0.880502,2.7945 -2.737767,9.5866 -3.026139,11.0667 -0.355096,2.5418 -1.057375,5.2513 -1.065377,7.7559 2.970738,-2.9158 5.810014,-6.4788 9.0024,-9.3207 z m 4.113627,-9.3509 -2.554823,1.9314 0.497923,-3.0699 -2.77776,-1.5132 3.36405,-0.7071 1.537293,-11.9562 1.471369,12.0912 3.080021,0.5841 -2.589566,1.4611 0.608801,3.2881 z m 10.062387,14.3142 c -0.199858,-0.5209 -2.339761,-4.0934 -3.239509,-5.4733 -1.25383,-1.923 -2.104942,-2.8586 -2.600544,-2.8586 -1.914332,0 -6.106155,3.0552 -10.253697,7.4734 -1.042667,1.1107 -1.98879,2.2043 -1.961044,2.2888 5.436215,2.9638 12.580078,2.6074 18.054794,-1.4303 z m 3.580083,-3.8988 c 2.603652,-3.8989 3.347796,-9.4781 1.851097,-13.8786 -1.202089,-3.5343 -3.804752,-6.7361 -7.107401,-8.7437 -1.438991,-0.8747 -2.815316,-1.486 -2.97035,-1.3192 -0.05546,0.06 0.434106,1.5784 1.087915,3.3751 3.116432,8.5639 4.638485,13.397 5.857607,18.6 0.600437,2.5626 0.611324,2.6001 0.754184,2.5998 0.0573,-2e-4 0.294428,-0.2852 0.526948,-0.6334 z m -18.660412,-24.167 c -0.09898,-0.1601 -1.820031,0.5731 -2.928567,1.2151 -3.696482,2.1408 -6.494497,5.6121 -7.902133,9.8036 -0.602896,1.7952 -0.772882,4.746 -0.397431,6.899 0.62157,2.2083 1.893513,5.912792 3.057812,6.964 1.37503,-7.1847 5.001564,-16.9439 8.170319,-24.8817 z" fill="#0b1123" />
</svg>
