<svg xmlns="http://www.w3.org/2000/svg" version="1" width="64" height="64" viewBox="20,0,260,155"><path d="m243.2 67.8c0 9-7.3 16.3-16.3 16.3-9 0-16.2-7.3-16.2-16.3 0-9 7.3-16.3 16.3-16.3 9 0 16.3 7.3 16.3 16.3zM226.8 37.5c-16.7 0-30.2 13.4-30.3 30.1l-18.9 27.1c-0.8-0.1-1.6-0.1-2.3-0.1-4.2 0-8.2 1.2-11.6 3.2l-85.6-34.4c-2.2-10.2-11.3-17.8-22.1-17.8-12.5 0-22.7 10.2-22.7 22.7 0 12.5 10.2 22.7 22.7 22.7 4.2 0 8.2-1.2 11.6-3.2l85.6 34.4c2.2 10.2 11.3 17.8 22.1 17.8 11.7 0 21.4-9 22.5-20.4l29.1-21.3c16.8 0 30.3-13.6 30.3-30.3 0-16.8-13.6-30.3-30.3-30.3zm0 10c11.2 0 20.3 9.1 20.3 20.3 0 11.2-9.1 20.3-20.3 20.3-11.2 0-20.3-9.1-20.3-20.3 0-11.2 9.1-20.3 20.3-20.3zm-170.9 4c6.4 0 11.9 3.6 14.7 8.8l-8.3-3.3 0 0c-6.7-2.4-14.1 0.9-16.7 7.5-2.7 6.6 0.4 14.1 6.9 17l0 0 7 2.8c-1.2 0.3-2.4 0.4-3.6 0.4-9.2 0-16.7-7.4-16.7-16.7 0-9.2 7.4-16.7 16.7-16.7zM175.2 100.5c9.2 0 16.7 7.4 16.7 16.7 0 9.2-7.4 16.7-16.7 16.7-6.4 0-12-3.6-14.7-8.9 2.7 1.1 5.5 2.2 8.2 3.3 6.8 2.7 14.5-0.6 17.3-7.3 2.7-6.8-0.6-14.5-7.4-17.2l-6.9-2.8c1.2-0.3 2.4-0.4 3.6-0.4z" fill="#333"/></svg>
