<?xml version="1.0" encoding="UTF-8" standalone="no"?>
<!-- Created with Inkscape (http://www.inkscape.org/) -->

<svg xmlns:dc="http://purl.org/dc/elements/1.1/" xmlns:cc="http://creativecommons.org/ns#" xmlns:rdf="http://www.w3.org/1999/02/22-rdf-syntax-ns#" xmlns:svg="http://www.w3.org/2000/svg" xmlns="http://www.w3.org/2000/svg" xmlns:sodipodi="http://sodipodi.sourceforge.net/DTD/sodipodi-0.dtd" xmlns:inkscape="http://www.inkscape.org/namespaces/inkscape" version="1.0" width="298.47055" height="173.23642" viewBox="0 0 298.47056 173.23642" id="Layer_1" xml:space="preserve" inkscape:version="0.48.4 r9939" sodipodi:docname="steam.svg"><metadata id="metadata3032"><rdf:RDF><cc:Work rdf:about=""><dc:format>image/svg+xml</dc:format><dc:type rdf:resource="http://purl.org/dc/dcmitype/StillImage" /><dc:title></dc:title></cc:Work></rdf:RDF></metadata><sodipodi:namedview pagecolor="#ffffff" bordercolor="#666666" borderopacity="1" objecttolerance="10" gridtolerance="10" guidetolerance="10" inkscape:pageopacity="0" inkscape:pageshadow="2" inkscape:window-width="1920" inkscape:window-height="1032" id="namedview3030" showgrid="false" fit-margin-top="25" fit-margin-left="25" fit-margin-right="25" fit-margin-bottom="25" inkscape:zoom="3.9803501" inkscape:cx="167.40946" inkscape:cy="70.522006" inkscape:window-x="0" inkscape:window-y="24" inkscape:window-maximized="1" inkscape:current-layer="Layer_1" /><defs id="defs271" /><path d="m 243.17254,67.752466 c 0,8.97 -7.28,16.250001 -16.25001,16.250001 -8.96999,0 -16.25,-7.280001 -16.25,-16.250001 0,-8.970001 7.28001,-16.250001 16.25,-16.250001 8.97001,0 16.25001,7.28 16.25001,16.250001 z M 226.84128,37.502465 c -16.66072,0 -30.19243,13.43644 -30.34375,30.0625 l -18.90625,27.09375 c -0.77022,-0.0797 -1.55305,-0.125 -2.34375,-0.125 -4.22405,-6e-6 -8.17152,1.161163 -11.5625,3.1875 l -85.624998,-34.4375 c -2.237816,-10.158813 -11.31628,-17.8125 -22.125,-17.8125 -12.479368,-3e-6 -22.65625,10.208128 -22.65625,22.6875 -10e-7,12.479366 10.176878,22.65625 22.65625,22.65625 4.223861,-6e-6 8.171517,-1.161101 11.5625,-3.1875 l 85.624998,34.375005 c 2.2152,10.18255 11.29462,17.84375 22.125,17.84375 11.73131,0 21.41029,-8.99255 22.53125,-20.4375 l 29.0625,-21.250005 c 16.75121,-2e-6 30.34376,-13.566124 30.34375,-30.3125 1e-5,-16.755956 -13.59133,-30.34375 -30.34375,-30.34375 z m 0,10 c 11.22382,0 20.34375,9.119658 20.34375,20.34375 -1e-5,11.22409 -9.11993,20.3125 -20.34375,20.3125 -11.22381,-2e-6 -20.34375,-9.088408 -20.34375,-20.3125 -1e-5,-11.224094 9.11993,-20.34375 20.34375,-20.34375 z m -170.906248,3.96875 c 6.397402,-3e-6 11.926337,3.574206 14.71875,8.84375 l -8.28125,-3.3125 0,0.03125 c -6.672004,-2.396 -14.084,0.865 -16.75,7.5 -2.666002,6.634994 0.401,14.14525 6.875,17.03125 l 0,0.03125 7.03125,2.8125 c -1.155873,0.251763 -2.359837,0.40625 -3.59375,0.40625 -9.232991,2e-6 -16.65625,-7.423254 -16.65625,-16.65625 0,-9.232998 7.423254,-16.6875 16.65625,-16.6875 z M 175.24753,100.53372 c 9.23351,-1e-5 16.65625,7.4227 16.65625,16.65625 -4e-5,9.23355 -7.4227,16.65625 -16.65625,16.65625 -6.42264,0 -11.96824,-3.581 -14.75,-8.875 2.7391,1.10531 5.48292,2.19933 8.21875,3.3125 6.78897,2.728 14.521,-0.55275 17.25,-7.34375 2.72896,-6.78901 -0.585,-14.49075 -7.375,-17.21875 l -6.9375,-2.78125 c 1.15588,-0.25176 2.35976,-0.40625 3.59375,-0.40625 z" id="Gears" style="fill:#333333;fill-opacity:1;fill-rule:nonzero;stroke:none" inkscape:connector-curvature="0" /></svg>