<?xml version="1.0" encoding="UTF-8" standalone="no"?>
<svg xmlns="http://www.w3.org/2000/svg" version="1.1" height="64" width="64" viewBox="0,0,64,64" color="#eb4924">
<path fill="#eb4924" d="m 29.461108,40.134515 0,-15.4477 c 0,-3.7391 5.052961,-3.6854 5.052961,0 l 0,2.7505 3.306121,1.4833 4.934594,-1.451 0,-3.5417 c -0.606628,-13.68635 -21.172632,-13.9506097 -21.505196,0.4337 l 0,15.3392 c -0.265443,2.8129 -4.737099,3.2607 -4.980257,0 l -0.09662,-6.7986 -8.2327117,0 0.015674,7.2323 c 1.0207644,14.0892 20.7885497,13.1919 21.5054347,0 z m 26.598893,-0.3468 0,-6.8751 -8.303069,0 0,6.9835 c -0.10006,3.116 -4.846555,3.2869 -5.029251,0 l 0,-6.8954 -4.914517,1.4772 -3.328575,-1.5307 0,7.1115 c 0.5767,12.9778 20.570573,14.6239 21.575412,-0.271 z" />
</svg>
