<svg xmlns="http://www.w3.org/2000/svg" version="1.1" width="64" height="64" viewBox="-3,0,64,64" color="#05adee">
  <path d="m30.127789,7.9999999 0,3.9164381c14.463158,-1.151331 5.799107,16.353768 9.834608,18.972954 7.974197,5.101638 -0.427866,5.469832 -0.870322,8.268027 -0.725556,9.351297 3.394603,15.211247 -9.138349,13.228849l0,3.481278c0,0 10.650222,0.855992 13.315876,-1.784157 3.913553,-3.876097 1.271181,-10.443359 2.610961,-14.490809 1.870046,-2.606068 5.46829,-1.691555 5.57004,-4.525657 0.109704,-3.055469 -4.213441,-3.182344 -5.57004,-5.918171 C 44.011105,25.378659 44.92321,16.964287 44.92321,16.964287 43.313539,9.6501842 37.520184,8.2038525 30.127789,7.9999999 z" fill="#05adee" />
  <path d="m35.697835,27.147018a2.9590855,2.9590855 0 0 1-5.918171,0 2.9590855,2.9590855 0 1 1 5.918171,0 zM 12.79351,8.0509794 12.547346,55.693478l12.706656,0 0,-3.277343 -7.01353,-0.123082 0.246161,-40.391548 7.064519,0 L 25.42807,8.1442005 12.79351,8.0509832 z" fill="#000" />
</svg>
