<svg xmlns="http://www.w3.org/2000/svg" version="1.1" width="64" height="64" viewBox="-3 0 64 64" color="#05adee"><path d="m30.1 8 0 3.9c14.5-1.2 5.8 16.4 9.8 19 8 5.1-0.4 5.5-0.9 8.3-0.7 9.4 3.4 15.2-9.1 13.2l0 3.5c0 0 10.7 0.9 13.3-1.8 3.9-3.9 1.3-10.4 2.6-14.5 1.9-2.6 5.5-1.7 5.6-4.5 0.1-3.1-4.2-3.2-5.6-5.9C44 25.4 44.9 17 44.9 17 43.3 9.7 37.5 8.2 30.1 8zM35.7 27.1 35.7 27.1" fill="#05adee"/><path d="m35.7 27.15a2.96 2.96 0 0 1-5.9 0 2.96 2.96 0 1 1 5.92 0zM12.79 8.05 12.55 55.69l12.71 0 0-3.28-7.01-0.12 0.25-40.39 7.06 0L25.43 8.14 12.79 8.05z" fill="#000"/></svg>
