<svg xmlns="http://www.w3.org/2000/svg" viewBox="3 3 58 58" color="#37aee2"><defs><linearGradient id="telebg" x1="0.75" y1="0.2" x2="0.5" y2="0.75"><stop offset="0" stop-color="#37aee2"/><stop offset="1" stop-color="#1e96c8"/></linearGradient></defs><circle fill="url(#telebg)" r="24" cy="32" cx="32"/><path class="inverted" fill="#c8daea" d="m27.6,43c-0.77,0-0.65-0.3-0.91-1.04l-2.29-7.52 17.6-10.44"/><path class="inverted" fill="#a9c9dd" d="m27.6,43c0.6,0 0.86-0.27 1.2-0.6l3.2-3.12-3.99-2.41"/><path class="inverted" fill="#eff7fc" d="m28.01,36.88 9.67,7.15c1.1,0.61 1.9,0.29 2.17-1.02l3.9-18.55c0.4-1.62-0.62-2.35-1.67-1.87l-23.12,8.92c-1.58,0.64-1.57,1.52-0.29,1.91l5.93,1.86 13.75-8.66c0.65-0.39 1.24-0.18 0.75,0.25"/></svg>
