<?xml version="1.0" encoding="UTF-8" standalone="no"?>
<!-- Created with Inkscape (http://www.inkscape.org/) -->

<svg xmlns:dc="http://purl.org/dc/elements/1.1/" xmlns:cc="http://creativecommons.org/ns#" xmlns:rdf="http://www.w3.org/1999/02/22-rdf-syntax-ns#" xmlns:svg="http://www.w3.org/2000/svg" xmlns="http://www.w3.org/2000/svg" xmlns:xlink="http://www.w3.org/1999/xlink" xmlns:sodipodi="http://sodipodi.sourceforge.net/DTD/sodipodi-0.dtd" xmlns:inkscape="http://www.inkscape.org/namespaces/inkscape" width="744.09448819" height="1052.3622047" id="svg2" version="1.1" inkscape:version="0.48.3.1 r9886" sodipodi:docname="twitter-source.svg">
  <defs id="defs4" />
  <sodipodi:namedview id="base" pagecolor="#ffffff" bordercolor="#666666" borderopacity="1.0" inkscape:pageopacity="0.0" inkscape:pageshadow="2" inkscape:zoom="0.98994949" inkscape:cx="979.57716" inkscape:cy="668.80463" inkscape:document-units="px" inkscape:current-layer="layer1" showgrid="false" inkscape:window-width="1280" inkscape:window-height="922" inkscape:window-x="583" inkscape:window-y="24" inkscape:window-maximized="0" />
  <metadata id="metadata7">
    <rdf:RDF>
      <cc:Work rdf:about="">
        <dc:format>image/svg+xml</dc:format>
        <dc:type rdf:resource="http://purl.org/dc/dcmitype/StillImage" />
        <dc:title />
      </cc:Work>
    </rdf:RDF>
  </metadata>
  <g inkscape:label="Layer 1" inkscape:groupmode="layer" id="layer1">
    <image id="image3183" xlink:href="file:///home/john/Desktop/twitter.png" height="88" width="52" transform="matrix(13.376374,0,0,13.376374,-0.99999866,-1.637813)" />
    <path style="fill:#000080;fill-opacity:0.70588235;stroke:none" d="M 482.84375,8.0625 C 403.94593,8.0625 340,72.039681 340,150.9375 c 0,10.29437 1.15625,30 1.15625,30 l -46.78125,0 C 191.10292,167.58695 102.29858,108.09808 49.3125,23.8125 c -15.822945,24.224255 -25.03125,53.156962 -25.03125,84.25 0,51.71619 25.447567,97.49841 64.5,125.5 -23.657988,-3.48465 -45.583948,-12.33794 -64.46875,-25.28125 -0.01481,0.88055 -0.03125,1.77217 -0.03125,2.65625 0,76.45641 55.61354,139.89309 128.59375,152.125 -26.15995,4.29847 -55.180042,1.11417 -78.0625,-6.96875 19.95332,55.37889 70.69204,96.01559 131.5625,101.34375 -47.58749,47.91465 -144.510708,57.7045 -215.40625,56.78125 64.547497,40.40803 141.45541,63.84375 224,63.84375 228.38452,0 413.5,-179.50496 413.5,-400.96875 0,-6.38278 -0.16462,-12.72142 -0.46875,-19.03125 l -0.5,0 C 642.30657,143.70529 700.18358,87.390678 701.4375,82.375 702.86607,76.660715 620,108.15625 620,108.15625 L 677.15625,19.5 c 0,0 -68.23213,28.926945 -89.1875,34.71875 C 561.85669,25.851095 524.43221,8.0625 482.84375,8.0625 z" id="path2989" inkscape:connector-curvature="0" sodipodi:nodetypes="cscccsccscscccssccsccc" />
    <path style="fill:#2f0000;fill-opacity:0.70238097;stroke:none" d="m -218,560 c -95,1 -170,-90 -170,-200 1,-32 6,-64 19,-92 l 152,92 z m 50,-150 c -95,1 -170,-90 -170,-200 1,-32 6,-64 19,-92 l 152,92 z" id="path2984" inkscape:connector-curvature="0" />
    <path transform="translate(746.7728,405.74629)" style="fill:#000080;fill-opacity:0.70588235;stroke:none" d="M 0,0 C -26,4 -55,1 -78,-7 -58,49 -8,89 54,94 M 24,9 c -26,4 -55,1 -78,-7 20,56 70,96 132,101 z" id="path2989-8" inkscape:connector-curvature="0" sodipodi:nodetypes="cscc" />
  </g>
</svg>
