<?xml version="1.0" encoding="UTF-8" standalone="no"?>
<svg xmlns="http://www.w3.org/2000/svg" version="1.1" width="306" height="258">
  <path d="M 1.71265,820.68 C 172.99617,836.63867 280.1273,774.07238 347,724.16177 236.18232,722.0992 153.65762,644.13 129.38247,561.59936 c 40.44761,5.42698 64.50943,5.6807 103.42983,-3.78148 C 116.73711,530.49518 48.37255,438.56 47.06552,325.36205 71.83315,340.5217 113.63948,354.0589 151.5021,354.12049 45.65713,280.56545 20.05352,144.63505 80.94456,42.016 212.58998,200.42788 376.82314,276.083 562.53157,286.0555 516.82533,47.18 798.06103,-97.29635 960.95203,73.50805 1016.5546,60.17676 1062.2564,45.98176 1108.2223,16.359 c -10.92,46.54355 -54.7888,102.9316 -100.7304,129.04828 39.6315,-2.18049 103.5548,-22.91608 132.9638,-36.06019 -29.3402,42.85197 -71.381,90.03 -116.116,120.7489 C 1034.3644,804.06936 442.08614,1102.1588 1.71265,820.68 z" transform="matrix(0.22480928,0,0,0.22480928,24.614979,24.495483)" style="fill:#55acee" />
</svg>
