<svg xmlns="http://www.w3.org/2000/svg" version="1.1" width="64" height="64">
  <path d="m 25.617533,50.33292 c -2.392225,-2.0129 -3.356732,-4.241 -5.840001,-13.4904 -2.473033,-9.2114 -3.832037,-12.6923 -5.153296,-13.1993 -1.825986,-0.029 -2.999139,0.7881 -4.587175,1.6433 -0.6860097,-0.8733 -1.371965,-1.7466 -2.0579234,-2.6199 l 3.8770984,-3.6694 c 6.707642,-6.3485 10.203686,-7.9232 13.094807,-5.8982 1.87988,1.3167 2.675096,3.411 3.865616,10.1805 1.475812,8.3918 2.561557,12.2084 3.788978,13.3192 0.96489,0.8733 1.086614,0.8458 2.576106,-0.5812 2.389161,-2.289 5.35159,-8.3099 5.35159,-10.8767 0,-2.6611 -1.225243,-3.5213 -4.280363,-3.0052 l -2.067176,0.3493 0.853594,-2.1731 c 1.185551,-3.0181 4.224971,-6.4041 6.797515,-7.5726 2.871687,-1.30431 7.016371,-1.29462 9.17478,0.021 2.171061,1.3238 3.027138,3.9539 2.76284,8.488 -0.266742,4.5761 -2.801829,9.7435 -8.509118,17.3448 -8.54724,11.3836 -15.285806,15.4098 -19.647872,11.7394 z" fill="#1ab7ea" />
</svg>
