<svg xmlns="http://www.w3.org/2000/svg" version="1.1" width="64" height="64" viewBox="1 0 60 60" color="#1ab7ea"><path d="m25.6 50.3c-2.4-2-3.4-4.2-5.8-13.5-2.5-9.2-3.8-12.7-5.2-13.2-1.8 0-3 0.8-4.6 1.6-0.7-0.9-1.4-1.7-2.1-2.6l3.9-3.7c6.7-6.3 10.2-7.9 13.1-5.9 1.9 1.3 2.7 3.4 3.9 10.2 1.5 8.4 2.6 12.2 3.8 13.3 1 0.9 1.1 0.8 2.6-0.6 2.4-2.3 5.4-8.3 5.4-10.9 0-2.7-1.2-3.5-4.3-3l-2.1 0.3 0.9-2.2c1.2-3 4.2-6.4 6.8-7.6 2.9-1.3 7-1.3 9.2 0 2.2 1.3 3 4 2.8 8.5-0.3 4.6-2.8 9.7-8.5 17.3-8.5 11.4-15.3 15.4-19.6 11.7z" fill="#1ab7ea"/></svg>
