<svg xmlns="http://www.w3.org/2000/svg" version="1.1" width="64" height="64" viewBox="0,0,64,64" color="#00b488">
<path d="m 30.967308,56.20532 c -1.939427,-0.2752 -3.518592,-1.6559 -5.741964,-3.9456 C 18.679362,46.09682 11.925412,29.48102 11,15.51512 c 2.68323,0 5.36646,0 8.04969,0 2.123066,14.6869 5.362579,24.6762 12.510183,32.7951 3.507032,-3.3001 6.409801,-7.8645 8.359378,-11.6242 -3.912865,-1.849 -6.062508,-5.1534 -7.315799,-8.2525 -3.67373,-9.6403 -0.506108,-19.77729 9.963495,-20.10262 7.656714,-0.0174 10.330806,5.83942 10.392724,11.33872 -0.05437,3.2527 -0.62437,5.6202 -1.552529,8.4407 -2.214314,0.5456 -4.52686,-0.069 -5.937472,-1.0718 -1.103426,-0.81 -1.544708,-0.3583 -0.796888,-2.6204 0.771283,-2.7689 1.105451,-8.8876 -2.666572,-8.958 -2.639245,0.2113 -3.343711,3.3915 -3.333816,5.5706 0.668622,8.9993 6.468213,12.9813 14.215803,10.9966 l 0,5.7579 c -2.493552,0.6007 -2.628843,0.633 -5.655729,0.6674 -1.764574,4.2013 -11.55011,18.6589 -16.26516,17.7527 z" fill="#00b488" />
</svg>
