<svg xmlns="http://www.w3.org/2000/svg" version="1.1" width="64" height="64" viewBox="0,0,64,64" color="#00b488"><path d="m31 56.2c-1.9-0.3-3.5-1.7-5.7-3.9C18.7 46.1 11.9 29.5 11 15.5c2.7 0 5.4 0 8 0 2.1 14.7 5.4 24.7 12.5 32.8 3.5-3.3 6.4-7.9 8.4-11.6-3.9-1.8-6.1-5.2-7.3-8.3-3.7-9.6-0.5-19.8 10-20.1 7.7 0 10.3 5.8 10.4 11.3-0.1 3.3-0.6 5.6-1.6 8.4-2.2 0.5-4.5-0.1-5.9-1.1-1.1-0.8-1.5-0.4-0.8-2.6 0.8-2.8 1.1-8.9-2.7-9-2.6 0.2-3.3 3.4-3.3 5.6 0.7 9 6.5 13 14.2 11l0 5.8c-2.5 0.6-2.6 0.6-5.7 0.7-1.8 4.2-11.6 18.7-16.3 17.8z" fill="#00b488"/></svg>
