<svg xmlns="http://www.w3.org/2000/svg" width="64" height="64" viewBox="2,2,60,60" color="#21759b"><path d="m32 56c-13.3 0-24.1-10.6-24-24C8.1 18.6 18.2 8 32 8 45.8 8 56 18.8 56 32c0 13.2-10.7 24-24 24zm7.1-3.7-6.8-18.3-6.4 18.7c4.7 1.1 7.9 1.4 13.2-0.4zM22.5 51.3 12.3 23.4c-1.4 3-1.7 5.5-1.9 8.6 0.1 8.2 4.7 15.7 12.1 19.3zm31-19.3c0.1-5.3-2.3-9.5-2.5-10.1 0.2 4.1-0.4 6.2-1.1 8.5l-7 20.1c8.8-5.3 10.5-13.2 10.7-18.5zm-22.2-0.9-3.4-9.3-2.5-0.2c-1-0.7-0.4-1.8 0.3-1.8 4.5 0.3 7 0.3 11.5 0 1.1 0 1.4 1.6 0.1 1.8l-2.4 0.2 7.8 23 3.7-12.6c0.2-5.5-1.3-6.1-3.3-10.1-1.6-3.1 0.1-6.1 3.2-6.2C43.8 13.5 38.7 10.5 32 10.4c-6.7-0.1-13.8 3.3-18 9.7l7.4-0.2c0.9 0.4 0.5 1.7 0 1.8l-2.6 0.2 7.8 23.4z" fill="#21759b"/></svg>
