<svg xmlns="http://www.w3.org/2000/svg" version="1.1" width="64" height="64" viewBox="2,2,60,60" color="#21759b">
<path d="m 32,56.00002 c -13.33186,0.01 -24.0660297,-10.6137 -24,-24 C 8.06603,18.61372 18.224483,8.01633 32,8 45.775517,7.9837 56.012072,18.81482 56,32.00002 c -0.01207,13.1852 -10.66814,23.9921 -24,24 z m 7.147246,-3.6963 -6.786187,-18.3025 -6.374909,18.7141 c 4.721718,1.0881 7.934293,1.4321 13.161096,-0.4116 z M 22.523661,51.31032 12.30222,23.38022 c -1.380263,3.027 -1.734954,5.4752 -1.890012,8.6198 0.05935,8.2411 4.696811,15.6856 12.111453,19.3103 z m 31.049674,-19.3103 c 0.12837,-5.3217 -2.281445,-9.526 -2.51822,-10.0609 0.197401,4.0541 -0.370296,6.1718 -1.1488,8.4769 l -7.008575,20.1148 c 8.812574,-5.3456 10.547225,-13.2091 10.675595,-18.5308 z m -22.226455,-0.8862 -3.397609,-9.252 -2.490672,-0.1562 c -0.998527,-0.6618 -0.432534,-1.8316 0.299142,-1.806 4.490945,0.2748 7.008407,0.258 11.536437,-0.017 1.148475,-0.048 1.433374,1.5621 0.14807,1.8493 l -2.43247,0.1549 7.77805,23.0457 3.731696,-12.604 c 0.183428,-5.5188 -1.309315,-6.1001 -3.300362,-10.0955 -1.560981,-3.1029 0.111608,-6.0891 3.214997,-6.2286 C 43.837927,13.49092 38.740556,10.49457 32,10.44256 c -6.740556,-0.052 -13.751026,3.26606 -17.985113,9.70316 l 7.449889,-0.2393 c 0.930111,0.3574 0.545682,1.7442 -0.03203,1.7755 l -2.616378,0.1974 7.834266,23.3633 z" fill="#21759b" />
</svg>
