<svg xmlns="http://www.w3.org/2000/svg" version="1.1" width="306" height="230.3"><path d="m195.4 113.1c-23.4-12.5-45.8-24-68.7-36 0 23.9 0 47.9 0 71.8 24.1-13.1 49.5-25.1 68.8-35.8z" fill="#fff"/><path d="m195.4 113.1c-23.4-12.5-68.7-36-68.7-36l60.4 40.6c0 0-11 6.1 8.3-4.6z" fill="#e8e0e0"/><path d="m131.1 205.1c-48.6-0.9 -65.2-1.7 -75.4-3.8 -6.9-1.4 -12.9-4.5 -17.3-9 -3.4-3.4 -6.1-8.6 -8.2-15.8 -1.8-6 -2.5-11 -3.5-23.2 -1.527-27.537 -1.896-50.05 0-75.2 1.5622-13.89 2.3213-30.379 12.7-40 4.9-4.5 10.6-7.4 17-8.6 10-1.9 52.6-3.4 96.7-3.4 44 0 86.7 1.5 96.7 3.4 8 1.5 15.5 6 19.9 11.8 9.47 14.894 9.637 33.415 10.6 47.9 0.4 6.9 0.4 46.1 0 53 -1.5 22.9 -2.7 31 -6.1 39.4 -2.1 5.3 -3.9 8.1 -7 11.2 -4.8 4.7 -10.9 7.9 -17.8 9.1 -42.06 3.166 -77.77 3.847 -118.3 3.2zm64.4-92C172.1 100.6 149.7 89 126.8 77c0 23.9 0 47.9 0 71.8 24.1-13.1 49.5-25.1 68.8-35.8z" fill="#cd201f"/></svg>
