<?xml version="1.0" encoding="UTF-8" standalone="no"?>

<svg xmlns="http://www.w3.org/2000/svg" version="1.1" width="306" height="230.25" id="svg2">
  <g transform="translate(0,-822.11218)" id="layer1">
    <g id="g3893">
      <path d="m 195.36858,934.63577 c -23.40253,-12.49636 -45.81879,-24.02134 -68.75,-36.04009 0,23.94465 0,47.88927 0,71.83396 24.12715,-13.109 49.45932,-25.09189 68.75,-35.79387 z" id="path3087-0" style="fill:#ffffff;stroke:none" />
      <path d="m 195.36858,934.63577 c -23.40253,-12.49636 -68.75,-36.04009 -68.75,-36.04009 l 60.42238,40.60194 c 0,0 -10.96306,6.14013 8.32762,-4.56185 z" id="path3087-0-2" style="fill:#e8e0e0;stroke:none" />
    </g>
    <path d="m 131.125,1026.6941 c -48.6198,-0.8889 -65.19831,-1.7345 -75.375,-3.8446 -6.919092,-1.4347 -12.882338,-4.5333 -17.250412,-8.9637 -3.400095,-3.4486 -6.058605,-8.5675 -8.2126,-15.81316 -1.774468,-5.96899 -2.532232,-10.96075 -3.523413,-23.21046 -1.066385,-13.17912 -1.138575,-15.5647 -1.138575,-37.625 0,-22.0603 0.07219,-24.44588 1.138575,-37.625 0.988651,-12.21845 1.722338,-17.06593 3.515605,-23.22765 2.17887,-7.48666 5.346531,-13.29446 9.157474,-16.7899 4.863976,-4.4613 10.639291,-7.37496 17.013528,-8.58338 10.00603,-1.89692 52.634418,-3.39308 96.674818,-3.39308 44.04039,0 86.66879,1.49616 96.67482,3.39308 7.96871,1.51069 15.50155,5.98474 19.89141,11.81429 3.3786,4.48664 6.24445,11.80751 7.89922,20.17878 0.8994,4.54985 1.82475,14.01464 2.7114,27.73286 0.44705,6.91691 0.44828,46.05385 0.002,53 -1.47173,22.88941 -2.72507,31.0204 -6.07936,39.43982 -2.09161,5.2501 -3.90307,8.1456 -7.02931,11.2362 -4.79884,4.7442 -10.93944,7.8671 -17.83221,9.0691 -7.16168,1.2489 -31.80941,2.4456 -64.48764,3.1311 -10.1048,0.2119 -43.80491,0.2625 -53.75,0.081 z M 195.5,934.61045 c -23.40253,-12.49636 -45.81879,-24.02134 -68.75,-36.04009 0,23.94465 0,47.88931 0,71.83396 24.12715,-13.10902 49.45932,-25.09189 68.75,-35.79387 z" id="path3087" style="fill:#cd201f;stroke:#cd201f;stroke:none" />
  </g>
</svg>
