<svg xmlns="http://www.w3.org/2000/svg" version="1.1" width="550" height="146"><path d="m196.88 117.68 0-46.05 17.55 0 0 42.69c2.86 18.35 24.99 10.82 26.31 0l0-42.69 17.58 0 0 65.6-17.58 0 0-9.48c-13.33 19.96-45.48 12.55-43.87-10.08zm185.93 19.56c-7.92-3.55-13.2-11.87-10.45-22.32 2.49-9.23 7.8-12.93 21.48-14.95 20.16-2.98 21.88-3.83 21.32-10.52-0.43-5.09-3.53-7.57-10.79-7.6-7.26-0.03-11.23 2.87-12.83 9.74l-17.66 0c1.27-19.12 21.41-22.85 35.26-21.58 13.85 1.27 24.91 6.24 24.31 18.12l0 39.13c0 1.05 0.39 5.86 1.95 9.96l-17.8 0c-0.15-0.95-1.33-4.3-1.22-6.35-5.77 8.42-25.63 9.91-33.55 6.35zm32.73-31.88c-5.41 4.05-15 2.57-19.29 4.8-12.08 5.65-6.27 17.56 4.13 17.29 18.76-0.24 14.72-18.27 15.15-22.09zm-270.59 31.87c-1.47-3.86-29.3-90.2-28.61-90.2l19.53 0 20.47 62.98 20.76-62.79 20.1-0.28-30.03 90.29zM270.71 60.66c4.81 2.3 11.84 5.34 17.39 9.11l0 67.47-17.39 0zm31.81 18.95c4.02 2.15 13.65 10.25 17.93 14.68l0 42.95-17.93 0zm21.12 15.49 22.56-23.47 21.37 0-25.09 24.12 27.41 41.48-21.66 0-24.59-38.48zm121.69-23.47 17 0 0.02 9.88c4.14-6.12 8.42-11.48 21.66-11.61 13.24-0.13 22.17 5.21 23.63 21.45l-0.11 45.88c-6.07 0-12.13 0-18.2 0l0-40.05c-0.86-10.57-5.27-13.22-13.62-13.05-8.11 0.59-10.85 7-12.37 13.05l-0.01 40.05-18 0zM320.45 87.18C267.12 41.62 201.81 27.49 151.04 30.89 100.27 34.28 56.21 64.84 107.2 112.01 7.32 66.5 35.61 16.57 105.98 8.65c35.4-3.98 76.33-2.67 117 9.84 20.34 6.25 39.85 14.51 57.72 26.62 19.48 13.2 34.97 28.57 39.75 42.07zm-17.93-31.28 0-9.25 17.93 0 0 29.54C316.2 69.3 309.26 61.57 302.52 55.89z" fill="#ce171f"/></svg>
